<?xml version="1.0" encoding="UTF-8"?>
<!DOCTYPE svg PUBLIC "-//W3C//DTD SVG 1.1//EN" "http://www.w3.org/Graphics/SVG/1.1/DTD/svg11.dtd">
<svg xmlns="http://www.w3.org/2000/svg" version="1.1" width="512px" height="512px" style="shape-rendering:geometricPrecision; text-rendering:geometricPrecision; image-rendering:optimizeQuality; fill-rule:evenodd; clip-rule:evenodd" xmlns:xlink="http://www.w3.org/1999/xlink">
<g><path style="opacity:0.984" fill="#373751" d="M 101.5,22.5 C 112.172,22.3335 122.839,22.5002 133.5,23C 140.262,24.7633 144.762,28.9299 147,35.5C 147.5,42.1583 147.666,48.825 147.5,55.5C 158.5,55.5 169.5,55.5 180.5,55.5C 176.148,31.1234 186.148,20.1234 210.5,22.5C 235.055,20.0605 245.055,31.0605 240.5,55.5C 251.5,55.5 262.5,55.5 273.5,55.5C 269.148,31.1234 279.148,20.1234 303.5,22.5C 328.055,20.0605 338.055,31.0605 333.5,55.5C 344.5,55.5 355.5,55.5 366.5,55.5C 362.148,31.1234 372.148,20.1234 396.5,22.5C 421.055,20.0605 431.055,31.0605 426.5,55.5C 451.262,51.9285 462.262,62.5952 459.5,87.5C 483.519,83.5227 494.185,93.5227 491.5,117.5C 494.163,141.5 483.496,151.5 459.5,147.5C 459.5,158.5 459.5,169.5 459.5,180.5C 483.519,176.523 494.185,186.523 491.5,210.5C 494.163,234.5 483.496,244.5 459.5,240.5C 459.5,251.5 459.5,262.5 459.5,273.5C 483.519,269.523 494.185,279.523 491.5,303.5C 494.163,327.5 483.496,337.5 459.5,333.5C 459.5,344.5 459.5,355.5 459.5,366.5C 483.519,362.523 494.185,372.523 491.5,396.5C 494.163,420.5 483.496,430.5 459.5,426.5C 459.666,431.844 459.499,437.177 459,442.5C 457.548,449.926 453.382,455.093 446.5,458C 439.897,459.274 433.23,459.774 426.5,459.5C 430.5,483.496 420.5,494.163 396.5,491.5C 372.523,494.185 362.523,483.519 366.5,459.5C 355.5,459.5 344.5,459.5 333.5,459.5C 337.5,483.496 327.5,494.163 303.5,491.5C 279.523,494.185 269.523,483.519 273.5,459.5C 262.5,459.5 251.5,459.5 240.5,459.5C 244.5,483.496 234.5,494.163 210.5,491.5C 186.523,494.185 176.523,483.519 180.5,459.5C 169.5,459.5 158.5,459.5 147.5,459.5C 151.5,483.496 141.5,494.163 117.5,491.5C 93.5227,494.185 83.5227,483.519 87.5,459.5C 62.5952,462.262 51.9285,451.262 55.5,426.5C 31.0605,431.055 20.0605,421.055 22.5,396.5C 20.1234,372.148 31.1234,362.148 55.5,366.5C 55.5,355.5 55.5,344.5 55.5,333.5C 31.0605,338.055 20.0605,328.055 22.5,303.5C 20.1234,279.148 31.1234,269.148 55.5,273.5C 55.5,262.5 55.5,251.5 55.5,240.5C 31.0605,245.055 20.0605,235.055 22.5,210.5C 20.1234,186.148 31.1234,176.148 55.5,180.5C 55.5,169.5 55.5,158.5 55.5,147.5C 31.029,152.022 20.029,142.022 22.5,117.5C 20.1234,93.1484 31.1234,83.1484 55.5,87.5C 51.8333,62.5 62.5,51.8333 87.5,55.5C 87.1095,48.0791 87.6095,40.7458 89,33.5C 91.708,28.0793 95.8747,24.4127 101.5,22.5 Z"/></g>
<g><path style="opacity:1" fill="#ece56e" d="M 103.5,36.5 C 112.839,36.3335 122.173,36.5002 131.5,37C 132.333,37.8333 133.167,38.6667 134,39.5C 134.499,44.8229 134.666,50.1563 134.5,55.5C 123.5,55.5 112.5,55.5 101.5,55.5C 101.334,49.8236 101.501,44.1569 102,38.5C 102.717,37.9558 103.217,37.2891 103.5,36.5 Z"/></g>
<g><path style="opacity:1" fill="#ece56e" d="M 196.5,36.5 C 205.839,36.3335 215.173,36.5002 224.5,37C 225.333,37.8333 226.167,38.6667 227,39.5C 227.499,44.8229 227.666,50.1563 227.5,55.5C 216.5,55.5 205.5,55.5 194.5,55.5C 194.334,49.8236 194.501,44.1569 195,38.5C 195.717,37.9558 196.217,37.2891 196.5,36.5 Z"/></g>
<g><path style="opacity:1" fill="#ece56e" d="M 289.5,36.5 C 298.839,36.3335 308.173,36.5002 317.5,37C 318.333,37.8333 319.167,38.6667 320,39.5C 320.499,44.8229 320.666,50.1563 320.5,55.5C 309.5,55.5 298.5,55.5 287.5,55.5C 287.334,49.8236 287.501,44.1569 288,38.5C 288.717,37.9558 289.217,37.2891 289.5,36.5 Z"/></g>
<g><path style="opacity:1" fill="#ece56e" d="M 382.5,36.5 C 391.839,36.3335 401.173,36.5002 410.5,37C 411.333,37.8333 412.167,38.6667 413,39.5C 413.499,44.8229 413.666,50.1563 413.5,55.5C 402.5,55.5 391.5,55.5 380.5,55.5C 380.334,49.8236 380.501,44.1569 381,38.5C 381.717,37.9558 382.217,37.2891 382.5,36.5 Z"/></g>
<g><path style="opacity:1" fill="#83d384" d="M 72.5,68.5 C 195.5,68.3333 318.5,68.5 441.5,69C 442.5,69.8333 443.5,70.6667 444.5,71.5C 445.665,194.793 445.831,318.127 445,441.5C 444.626,442.416 444.126,443.25 443.5,444C 381.415,445.163 319.248,445.663 257,445.5C 195.5,445.333 134,445.167 72.5,445C 71,444.167 69.8333,443 69,441.5C 68.3333,318.5 68.3333,195.5 69,72.5C 70.3756,71.2949 71.5423,69.9616 72.5,68.5 Z"/></g>
<g><path style="opacity:1" fill="#ece56e" d="M 38.5,101.5 C 44.1667,101.5 49.8333,101.5 55.5,101.5C 55.5,112.5 55.5,123.5 55.5,134.5C 50.1563,134.666 44.8229,134.499 39.5,134C 38.6667,133.167 37.8333,132.333 37,131.5C 36.3333,122.167 36.3333,112.833 37,103.5C 37.7172,102.956 38.2172,102.289 38.5,101.5 Z"/></g>
<g><path style="opacity:1" fill="#e9e26e" d="M 458.5,101.5 C 464.176,101.334 469.843,101.501 475.5,102C 476.333,102.833 477.167,103.667 478,104.5C 478.667,113.167 478.667,121.833 478,130.5C 476.833,131.667 475.667,132.833 474.5,134C 469.177,134.499 463.844,134.666 458.5,134.5C 458.5,123.5 458.5,112.5 458.5,101.5 Z"/></g>
<g><path style="opacity:1" fill="#393952" d="M 111.5,386.5 C 111.5,366.5 111.5,346.5 111.5,326.5C 106.833,326.5 102.167,326.5 97.5,326.5C 89.8901,324.724 85.0567,320.057 83,312.5C 82.3333,275.167 82.3333,237.833 83,200.5C 85.5759,193.092 90.7425,188.758 98.5,187.5C 102.833,187.5 107.167,187.5 111.5,187.5C 111.5,167.167 111.5,146.833 111.5,126.5C 113.082,119.744 117.082,114.911 123.5,112C 212.167,111.333 300.833,111.333 389.5,112C 396.667,113.833 401.167,118.333 403,125.5C 403.5,146.164 403.667,166.831 403.5,187.5C 413.623,185.481 422.123,188.148 429,195.5C 429.667,196.833 430.333,198.167 431,199.5C 432.148,218.437 432.648,237.437 432.5,256.5C 432.642,275.883 432.142,295.216 431,314.5C 429.167,320.333 425.333,324.167 419.5,326C 414.246,327.271 408.913,327.771 403.5,327.5C 403.667,347.836 403.5,368.169 403,388.5C 400.732,396.435 395.565,401.268 387.5,403C 300.167,403.667 212.833,403.667 125.5,403C 117.047,400.714 112.38,395.214 111.5,386.5 Z"/></g>
<g><path style="opacity:1" fill="#ebebf3" d="M 127.5,124.5 C 214.167,124.333 300.834,124.5 387.5,125C 388,125.5 388.5,126 389,126.5C 390.661,213.085 390.995,299.752 390,386.5C 388.833,387.667 387.667,388.833 386.5,390C 300.5,390.667 214.5,390.667 128.5,390C 127.069,389.535 125.903,388.701 125,387.5C 124.333,300.833 124.333,214.167 125,127.5C 125.698,126.309 126.531,125.309 127.5,124.5 Z"/></g>
<g><path style="opacity:1" fill="#618d6d" d="M 111.5,126.5 C 111.5,146.833 111.5,167.167 111.5,187.5C 107.167,187.5 102.833,187.5 98.5,187.5C 102.298,186.517 106.298,186.183 110.5,186.5C 110.17,166.326 110.503,146.326 111.5,126.5 Z"/></g>
<g><path style="opacity:1" fill="#373751" d="M 172.5,187.5 C 230.834,187.333 289.168,187.5 347.5,188C 353.086,192.421 352.753,196.421 346.5,200C 288.833,200.667 231.167,200.667 173.5,200C 168.698,196.262 168.365,192.096 172.5,187.5 Z"/></g>
<g><path style="opacity:1" fill="#ece56e" d="M 38.5,194.5 C 44.1667,194.5 49.8333,194.5 55.5,194.5C 55.5,205.5 55.5,216.5 55.5,227.5C 50.1563,227.666 44.8229,227.499 39.5,227C 38.6667,226.167 37.8333,225.333 37,224.5C 36.3333,215.167 36.3333,205.833 37,196.5C 37.7172,195.956 38.2172,195.289 38.5,194.5 Z"/></g>
<g><path style="opacity:1" fill="#e9e26e" d="M 458.5,194.5 C 464.176,194.334 469.843,194.501 475.5,195C 476.333,195.833 477.167,196.667 478,197.5C 478.667,206.167 478.667,214.833 478,223.5C 476.833,224.667 475.667,225.833 474.5,227C 469.177,227.499 463.844,227.666 458.5,227.5C 458.5,216.5 458.5,205.5 458.5,194.5 Z"/></g>
<g><path style="opacity:1" fill="#ececf3" d="M 110.5,200.5 C 110.5,238.167 110.5,275.833 110.5,313.5C 106.833,313.5 103.167,313.5 99.5,313.5C 97.8868,313.056 96.7202,312.056 96,310.5C 95.3333,274.833 95.3333,239.167 96,203.5C 96.8333,202.667 97.6667,201.833 98.5,201C 102.486,200.501 106.486,200.334 110.5,200.5 Z"/></g>
<g><path style="opacity:1" fill="#8e8e9f" d="M 110.5,200.5 C 111.499,238.33 111.832,276.33 111.5,314.5C 107.298,314.817 103.298,314.483 99.5,313.5C 103.167,313.5 106.833,313.5 110.5,313.5C 110.5,275.833 110.5,238.167 110.5,200.5 Z"/></g>
<g><path style="opacity:1" fill="#ececf3" d="M 403.5,200.5 C 407.514,200.334 411.514,200.501 415.5,201C 416.667,201.5 417.5,202.333 418,203.5C 418.667,239.5 418.667,275.5 418,311.5C 417.5,312 417,312.5 416.5,313C 412.179,313.499 407.846,313.666 403.5,313.5C 403.5,275.833 403.5,238.167 403.5,200.5 Z"/></g>
<g><path style="opacity:1" fill="#383852" d="M 198.5,231.5 C 239.501,231.333 280.501,231.5 321.5,232C 327.289,234.957 327.956,238.957 323.5,244C 281.5,244.667 239.5,244.667 197.5,244C 193.4,239.445 193.733,235.278 198.5,231.5 Z"/></g>
<g><path style="opacity:1" fill="#ece56e" d="M 38.5,287.5 C 44.1667,287.5 49.8333,287.5 55.5,287.5C 55.5,298.5 55.5,309.5 55.5,320.5C 50.1563,320.666 44.8229,320.499 39.5,320C 38.6667,319.167 37.8333,318.333 37,317.5C 36.3333,308.167 36.3333,298.833 37,289.5C 37.7172,288.956 38.2172,288.289 38.5,287.5 Z"/></g>
<g><path style="opacity:1" fill="#e9e26e" d="M 458.5,287.5 C 464.176,287.334 469.843,287.501 475.5,288C 476.333,288.833 477.167,289.667 478,290.5C 478.667,299.167 478.667,307.833 478,316.5C 477.167,317.5 476.333,318.5 475.5,319.5C 469.896,320.454 464.229,320.788 458.5,320.5C 458.5,309.5 458.5,298.5 458.5,287.5 Z"/></g>
<g><path style="opacity:1" fill="#5c846a" d="M 97.5,326.5 C 102.167,326.5 106.833,326.5 111.5,326.5C 111.5,346.5 111.5,366.5 111.5,386.5C 110.503,367.007 110.17,347.34 110.5,327.5C 105.968,327.818 101.634,327.485 97.5,326.5 Z"/></g>
<g><path style="opacity:1" fill="#ece56e" d="M 38.5,380.5 C 44.1667,380.5 49.8333,380.5 55.5,380.5C 55.5,391.5 55.5,402.5 55.5,413.5C 50.1563,413.666 44.8229,413.499 39.5,413C 38.6667,412.167 37.8333,411.333 37,410.5C 36.3333,401.167 36.3333,391.833 37,382.5C 37.7172,381.956 38.2172,381.289 38.5,380.5 Z"/></g>
<g><path style="opacity:1" fill="#e9e26e" d="M 458.5,380.5 C 464.176,380.334 469.843,380.501 475.5,381C 476.333,381.833 477.167,382.667 478,383.5C 478.667,392.167 478.667,400.833 478,409.5C 477.167,410.5 476.333,411.5 475.5,412.5C 469.896,413.454 464.229,413.788 458.5,413.5C 458.5,402.5 458.5,391.5 458.5,380.5 Z"/></g>
<g><path style="opacity:1" fill="#383952" d="M 85.5,388.5 C 88.9783,388.184 92.3117,388.684 95.5,390C 106.667,399.833 117.167,410.333 127,421.5C 128.289,426.965 126.789,431.465 122.5,435C 110.571,436.604 98.5714,436.937 86.5,436C 82.6667,434.833 80.1667,432.333 79,428.5C 78.3333,417.5 78.3333,406.5 79,395.5C 80.6941,392.642 82.8607,390.309 85.5,388.5 Z"/></g>
<g><path style="opacity:1" fill="#e7e7ef" d="M 93.5,406.5 C 99.1667,411.5 104.5,416.833 109.5,422.5C 103.833,422.5 98.1667,422.5 92.5,422.5C 92.1786,416.974 92.5119,411.64 93.5,406.5 Z"/></g>
<g><path style="opacity:1" fill="#9393a3" d="M 93.5,406.5 C 92.5119,411.64 92.1786,416.974 92.5,422.5C 98.1667,422.5 103.833,422.5 109.5,422.5C 104.262,423.5 98.2617,423.833 91.5,423.5C 91.1707,417.463 91.5041,411.463 92.5,405.5C 93.1067,405.624 93.44,405.957 93.5,406.5 Z"/></g>
<g><path style="opacity:1" fill="#cbc569" d="M 101.5,459.5 C 112.321,458.505 123.321,458.172 134.5,458.5C 134.821,464.026 134.488,469.36 133.5,474.5C 133.5,469.5 133.5,464.5 133.5,459.5C 122.833,459.5 112.167,459.5 101.5,459.5 Z"/></g>
<g><path style="opacity:1" fill="#cbc569" d="M 194.5,459.5 C 205.321,458.505 216.321,458.172 227.5,458.5C 227.821,464.026 227.488,469.36 226.5,474.5C 226.5,469.5 226.5,464.5 226.5,459.5C 215.833,459.5 205.167,459.5 194.5,459.5 Z"/></g>
<g><path style="opacity:1" fill="#cbc569" d="M 287.5,459.5 C 298.321,458.505 309.321,458.172 320.5,458.5C 320.821,464.026 320.488,469.36 319.5,474.5C 319.5,469.5 319.5,464.5 319.5,459.5C 308.833,459.5 298.167,459.5 287.5,459.5 Z"/></g>
<g><path style="opacity:1" fill="#cbc569" d="M 380.5,459.5 C 391.321,458.505 402.321,458.172 413.5,458.5C 413.821,464.026 413.488,469.36 412.5,474.5C 412.5,469.5 412.5,464.5 412.5,459.5C 401.833,459.5 391.167,459.5 380.5,459.5 Z"/></g>
<g><path style="opacity:1" fill="#ebe46e" d="M 101.5,459.5 C 112.167,459.5 122.833,459.5 133.5,459.5C 133.5,464.5 133.5,469.5 133.5,474.5C 132.71,475.794 131.71,476.961 130.5,478C 121.833,478.667 113.167,478.667 104.5,478C 103.667,477.167 102.833,476.333 102,475.5C 101.501,470.177 101.334,464.844 101.5,459.5 Z"/></g>
<g><path style="opacity:1" fill="#ebe46e" d="M 194.5,459.5 C 205.167,459.5 215.833,459.5 226.5,459.5C 226.5,464.5 226.5,469.5 226.5,474.5C 225.71,475.794 224.71,476.961 223.5,478C 214.833,478.667 206.167,478.667 197.5,478C 196.667,477.167 195.833,476.333 195,475.5C 194.501,470.177 194.334,464.844 194.5,459.5 Z"/></g>
<g><path style="opacity:1" fill="#ebe46e" d="M 287.5,459.5 C 298.167,459.5 308.833,459.5 319.5,459.5C 319.5,464.5 319.5,469.5 319.5,474.5C 319.063,476.074 318.063,477.241 316.5,478C 307.833,478.667 299.167,478.667 290.5,478C 289.667,477.167 288.833,476.333 288,475.5C 287.501,470.177 287.334,464.844 287.5,459.5 Z"/></g>
<g><path style="opacity:1" fill="#ebe46e" d="M 380.5,459.5 C 391.167,459.5 401.833,459.5 412.5,459.5C 412.5,464.5 412.5,469.5 412.5,474.5C 412.063,476.074 411.063,477.241 409.5,478C 400.833,478.667 392.167,478.667 383.5,478C 382.667,477.167 381.833,476.333 381,475.5C 380.501,470.177 380.334,464.844 380.5,459.5 Z"/></g>
</svg>
