<?xml version="1.0" encoding="UTF-8"?>
<!DOCTYPE svg PUBLIC "-//W3C//DTD SVG 1.1//EN" "http://www.w3.org/Graphics/SVG/1.1/DTD/svg11.dtd">
<svg xmlns="http://www.w3.org/2000/svg" version="1.1" width="512px" height="512px" style="shape-rendering:geometricPrecision; text-rendering:geometricPrecision; image-rendering:optimizeQuality; fill-rule:evenodd; clip-rule:evenodd" xmlns:xlink="http://www.w3.org/1999/xlink">
<g><path style="opacity:0.975" fill="#363651" d="M 39.5,47.5 C 183.5,47.3333 327.5,47.5 471.5,48C 478.845,50.6787 483.345,55.8454 485,63.5C 485.667,189.167 485.667,314.833 485,440.5C 482.715,449.785 476.882,455.285 467.5,457C 326.167,457.667 184.833,457.667 43.5,457C 34.1179,455.285 28.2846,449.785 26,440.5C 25.3333,314.833 25.3333,189.167 26,63.5C 27.8495,55.8255 32.3495,50.4922 39.5,47.5 Z"/></g>
<g><path style="opacity:1" fill="#ebebf2" d="M 43.5,60.5 C 184.834,60.3333 326.167,60.5 467.5,61C 469,61.8333 470.167,63 471,64.5C 471.167,127 471.333,189.5 471.5,252C 471.663,315.248 471.163,378.415 470,441.5C 469.25,442.126 468.416,442.626 467.5,443C 396.833,443.167 326.167,443.333 255.5,443.5C 184.086,443.664 112.752,443.164 41.5,442C 40.8742,441.25 40.3742,440.416 40,439.5C 39.3333,314.5 39.3333,189.5 40,64.5C 41.1022,63.051 42.2689,61.7177 43.5,60.5 Z"/></g>
<g><path style="opacity:1" fill="#383851" d="M 65.5,79.5 C 94.1686,79.3334 122.835,79.5 151.5,80C 154,81.1667 155.833,83 157,85.5C 157.667,97.8333 157.667,110.167 157,122.5C 155.413,125.756 152.913,127.923 149.5,129C 121.833,129.667 94.1667,129.667 66.5,129C 63.6667,127.5 61.5,125.333 60,122.5C 59.3333,110.167 59.3333,97.8333 60,85.5C 61.3597,82.9774 63.193,80.9774 65.5,79.5 Z"/></g>
<g><path style="opacity:1" fill="#383751" d="M 359.5,79.5 C 388.169,79.3334 416.835,79.5 445.5,80C 448,81.1667 449.833,83 451,85.5C 451.942,98.5701 451.609,111.57 450,124.5C 448.363,126.81 446.196,128.31 443.5,129C 415.833,129.667 388.167,129.667 360.5,129C 357.667,127.5 355.5,125.333 354,122.5C 353.333,110.167 353.333,97.8333 354,85.5C 355.36,82.9774 357.193,80.9774 359.5,79.5 Z"/></g>
<g><path style="opacity:1" fill="#ece66e" d="M 72.5,92.5 C 96.5,92.5 120.5,92.5 144.5,92.5C 144.5,100.5 144.5,108.5 144.5,116.5C 120.5,116.5 96.5,116.5 72.5,116.5C 72.5,108.5 72.5,100.5 72.5,92.5 Z"/></g>
<g><path style="opacity:1" fill="#ec6ba0" d="M 366.5,92.5 C 390.5,92.5 414.5,92.5 438.5,92.5C 438.5,100.5 438.5,108.5 438.5,116.5C 414.5,116.5 390.5,116.5 366.5,116.5C 366.5,108.5 366.5,100.5 366.5,92.5 Z"/></g>
<g><path style="opacity:1" fill="#373751" d="M 169.5,148.5 C 226.546,148.016 283.546,148.516 340.5,150C 345.712,152.247 349.212,156.08 351,161.5C 351.176,175.075 351.676,188.575 352.5,202C 370.5,202.333 388.5,202.667 406.5,203C 414.502,205.003 420.002,209.836 423,217.5C 423.667,281.833 423.667,346.167 423,410.5C 421.015,419.409 415.515,424.576 406.5,426C 304.167,426.667 201.833,426.667 99.5,426C 91.7993,422.969 86.966,417.469 85,409.5C 84.3333,345.5 84.3333,281.5 85,217.5C 87.9241,210.242 93.0908,205.408 100.5,203C 119.164,202.5 137.83,202.333 156.5,202.5C 156.333,188.829 156.5,175.163 157,161.5C 160.025,155.977 164.191,151.644 169.5,148.5 Z"/></g>
<g><path style="opacity:1" fill="#eee76e" d="M 158.5,334.5 C 167.839,334.334 177.173,334.5 186.5,335C 188.552,335.93 190.052,337.43 191,339.5C 191.5,363.831 191.667,388.164 191.5,412.5C 179.167,412.5 166.833,412.5 154.5,412.5C 154.333,387.831 154.5,363.164 155,338.5C 156.376,337.295 157.542,335.962 158.5,334.5 Z"/></g>
<g><path style="opacity:1" fill="#eee76e" d="M 240.5,334.5 C 249.506,334.334 258.506,334.5 267.5,335C 269.667,335.833 271.167,337.333 272,339.5C 272.5,363.831 272.667,388.164 272.5,412.5C 260.167,412.5 247.833,412.5 235.5,412.5C 235.333,388.164 235.5,363.831 236,339.5C 237.025,337.313 238.525,335.646 240.5,334.5 Z"/></g>
<g><path style="opacity:1" fill="#eee76e" d="M 353.5,340.5 C 353.5,364.5 353.5,388.5 353.5,412.5C 341.5,412.5 329.5,412.5 317.5,412.5C 317.5,388.5 317.5,364.5 317.5,340.5C 317.848,337.981 319.181,336.147 321.5,335C 330.833,334.333 340.167,334.333 349.5,335C 351.464,336.451 352.797,338.284 353.5,340.5 Z"/></g>
<g><path style="opacity:1" fill="#9d9961" d="M 317.5,340.5 C 317.5,364.5 317.5,388.5 317.5,412.5C 329.5,412.5 341.5,412.5 353.5,412.5C 353.5,388.5 353.5,364.5 353.5,340.5C 354.498,364.661 354.831,388.994 354.5,413.5C 341.833,413.5 329.167,413.5 316.5,413.5C 316.169,388.994 316.502,364.661 317.5,340.5 Z"/></g>
</svg>
