<?xml version="1.0" encoding="UTF-8"?>
<!DOCTYPE svg PUBLIC "-//W3C//DTD SVG 1.1//EN" "http://www.w3.org/Graphics/SVG/1.1/DTD/svg11.dtd">
<svg xmlns="http://www.w3.org/2000/svg" version="1.1" width="512px" height="512px" style="shape-rendering:geometricPrecision; text-rendering:geometricPrecision; image-rendering:optimizeQuality; fill-rule:evenodd; clip-rule:evenodd" xmlns:xlink="http://www.w3.org/1999/xlink">
<g><path style="opacity:0.992" fill="#373751" d="M 56.5,15.5 C 68.7417,14.527 79.7417,17.6936 89.5,25C 94.8333,30.3333 100.167,35.6667 105.5,41C 205.167,41.6667 304.833,41.6667 404.5,41C 410.864,34.3014 417.531,27.9681 424.5,22C 449.954,10.1534 470.787,15.6534 487,38.5C 494.053,54.958 492.72,70.6246 483,85.5C 477.699,91.8021 472.032,97.8021 466,103.5C 465.333,202.833 465.333,302.167 466,401.5C 473.405,408.235 480.072,415.568 486,423.5C 496.094,444.94 492.594,463.774 475.5,480C 457.167,492.667 438.833,492.667 420.5,480C 414.833,474.333 409.167,468.667 403.5,463C 304.5,462.333 205.5,462.333 106.5,463C 100.136,469.699 93.4692,476.032 86.5,482C 66.3378,493.267 47.5045,491.434 30,476.5C 19.8031,465.054 16.1365,451.72 19,436.5C 20.1268,429.775 22.7935,423.775 27,418.5C 32.6667,412.833 38.3333,407.167 44,401.5C 44.6667,302.167 44.6667,202.833 44,103.5C 33.7198,95.2309 25.7198,85.2309 20,73.5C 14.291,51.9538 20.4577,34.7871 38.5,22C 44.2986,18.9183 50.2986,16.7516 56.5,15.5 Z"/></g>
<g><path style="opacity:1" fill="#737392" d="M 54.5,29.5 C 63.5012,28.3346 71.8346,30.1679 79.5,35C 97.3473,52.6805 115.014,70.5139 132.5,88.5C 116.806,100.86 102.806,114.86 90.5,130.5C 72.8473,112.347 55.014,94.3472 37,76.5C 26.7432,54.7651 32.5765,39.0984 54.5,29.5 Z"/></g>
<g><path style="opacity:1" fill="#737392" d="M 440.5,29.5 C 457.753,27.8709 469.92,34.8709 477,50.5C 478.759,60.1648 477.092,69.1648 472,77.5C 454.333,95.1667 436.667,112.833 419,130.5C 406.992,114.659 393.158,100.659 377.5,88.5C 395.319,70.1805 413.319,52.0138 431.5,34C 434.592,32.4541 437.592,30.9541 440.5,29.5 Z"/></g>
<g><path style="opacity:1" fill="#373751" d="M 438.5,38.5 C 458.477,37.9781 468.311,47.6448 468,67.5C 461.041,85.7153 448.541,90.8819 430.5,83C 419.365,72.6844 417.532,60.8511 425,47.5C 428.826,43.3476 433.326,40.3476 438.5,38.5 Z"/></g>
<g><path style="opacity:1" fill="#373751" d="M 60.5,38.5 C 80.6862,37.8517 90.1862,47.5184 89,67.5C 84.3176,82.4341 74.151,88.6008 58.5,86C 42.1468,78.2777 37.6468,66.111 45,49.5C 48.9622,44.0231 54.1289,40.3564 60.5,38.5 Z"/></g>
<g><path style="opacity:1" fill="#9f9fb2" d="M 193.5,57.5 C 169.339,56.5024 145.006,56.169 120.5,56.5C 145.427,55.3387 171.094,55.172 197.5,56C 196.255,56.7914 194.922,57.2914 193.5,57.5 Z"/></g>
<g><path style="opacity:1" fill="#9e9eb1" d="M 388.5,57.5 C 364.167,56.1667 339.833,56.1667 315.5,57.5C 314.078,57.2914 312.745,56.7914 311.5,56C 337.833,55.3333 364.167,55.3333 390.5,56C 389.956,56.7172 389.289,57.2172 388.5,57.5 Z"/></g>
<g><path style="opacity:1" fill="#b8b8ca" d="M 120.5,56.5 C 145.006,56.169 169.339,56.5024 193.5,57.5C 176.01,62.7453 159.677,70.4119 144.5,80.5C 136.146,72.8123 128.146,64.8123 120.5,56.5 Z"/></g>
<g><path style="opacity:1" fill="#b7b7c9" d="M 315.5,57.5 C 339.833,56.1667 364.167,56.1667 388.5,57.5C 381.188,65.479 373.521,73.1457 365.5,80.5C 349.83,70.6648 333.163,62.9982 315.5,57.5 Z"/></g>
<g><path style="opacity:1" fill="#ec6b9f" d="M 234.5,61.5 C 303.581,57.1395 360.414,81.1395 405,133.5C 443.22,184.6 454.553,241.266 439,303.5C 415.029,379.138 364.196,424.971 286.5,441C 212.738,450.312 151.905,426.812 104,370.5C 74.3382,330.499 61.0049,285.499 64,235.5C 75.3071,153.529 119.807,98.3625 197.5,70C 209.791,66.3896 222.124,63.5563 234.5,61.5 Z"/></g>
<g><path style="opacity:1" fill="#383852" d="M 237.5,81.5 C 310.124,77.7471 365.624,106.414 404,167.5C 425.806,207.607 431.472,249.94 421,294.5C 400.519,363.647 355.019,405.814 284.5,421C 207.991,430.988 148.824,403.821 107,339.5C 77.2218,284.492 75.8884,228.825 103,172.5C 132.852,120.167 177.685,89.834 237.5,81.5 Z"/></g>
<g><path style="opacity:1" fill="#ebebf2" d="M 238.5,94.5 C 262.747,92.9886 286.247,96.322 309,104.5C 308.691,139.428 298.024,170.762 277,198.5C 265.428,194.482 253.594,193.482 241.5,195.5C 240.667,180.511 240.167,165.511 240,150.5C 237.966,132.034 235.133,113.701 231.5,95.5C 234.059,95.8016 236.393,95.4682 238.5,94.5 Z"/></g>
<g><path style="opacity:1" fill="#ebebf2" d="M 188.5,108.5 C 206.807,126.704 219.64,148.371 227,173.5C 227.628,182.862 227.295,192.195 226,201.5C 217.046,206.787 209.713,213.787 204,222.5C 181.759,197.245 156.259,176.079 127.5,159C 143.61,136.961 163.943,120.128 188.5,108.5 Z"/></g>
<g><path style="opacity:1" fill="#68687f" d="M 58.5,117.5 C 58.1689,143.005 58.5023,168.339 59.5,193.5C 59.0133,194.473 58.5133,195.473 58,196.5C 57.1698,169.997 57.3365,143.663 58.5,117.5 Z"/></g>
<g><path style="opacity:1" fill="#b7b7ca" d="M 58.5,117.5 C 67.0074,125.174 75.0074,133.341 82.5,142C 72.5162,158.134 64.8495,175.301 59.5,193.5C 58.5023,168.339 58.1689,143.005 58.5,117.5 Z"/></g>
<g><path style="opacity:1" fill="#b9b9cb" d="M 450.5,117.5 C 451.663,142.997 451.83,168.663 451,194.5C 445.646,175.629 437.479,158.129 426.5,142C 434.702,133.965 442.702,125.798 450.5,117.5 Z"/></g>
<g><path style="opacity:1" fill="#ebebf2" d="M 347.5,125.5 C 369.892,141.234 386.892,161.567 398.5,186.5C 373.759,210.287 344.259,224.953 310,230.5C 307.011,225.863 304.011,221.196 301,216.5C 296.984,212.652 293.151,208.652 289.5,204.5C 293.501,199.168 297.001,193.502 300,187.5C 318.348,168.666 334.182,147.999 347.5,125.5 Z"/></g>
<g><path style="opacity:1" fill="#ebebf2" d="M 106.5,197.5 C 133.476,198.101 158.809,204.934 182.5,218C 188.607,224.101 193.94,230.767 198.5,238C 196.664,245.7 195.997,253.533 196.5,261.5C 190.067,262.525 183.733,264.025 177.5,266C 151.038,266.298 125.038,269.798 99.5,276.5C 94.3624,249.539 96.6957,223.206 106.5,197.5 Z"/></g>
<g><path style="opacity:1" fill="#737392" d="M 245.5,207.5 C 282.611,206.444 300.444,224.444 299,261.5C 294.536,280.631 282.702,292.464 263.5,297C 237.8,299.283 220.3,288.45 211,264.5C 206.689,235.771 218.189,216.771 245.5,207.5 Z"/></g>
<g><path style="opacity:1" fill="#ebebf2" d="M 408.5,228.5 C 409.5,228.5 410.5,228.5 411.5,228.5C 413.423,248.291 412.589,267.958 409,287.5C 406.855,294.099 405.022,300.765 403.5,307.5C 368.075,307.026 336.409,296.026 308.5,274.5C 312.888,264.289 314.554,253.622 313.5,242.5C 319.251,241.864 324.918,240.697 330.5,239C 357.069,238.682 383.069,235.182 408.5,228.5 Z"/></g>
<g><path style="opacity:1" fill="#ebebf2" d="M 196.5,274.5 C 198.144,274.286 199.644,274.62 201,275.5C 205.659,285.156 212.159,293.323 220.5,300C 216.376,305.077 212.876,310.577 210,316.5C 191.492,335.871 175.158,356.871 161,379.5C 141.014,364.848 125.347,346.515 114,324.5C 112.41,322.35 111.743,320.017 112,317.5C 135.913,294.911 164.08,280.578 196.5,274.5 Z"/></g>
<g><path style="opacity:1" fill="#ebebf2" d="M 301.5,287.5 C 307.112,290.642 312.779,293.809 318.5,297C 337.618,315.46 358.451,331.627 381,345.5C 381.667,346.167 381.667,346.833 381,347.5C 365.366,368.137 345.866,383.971 322.5,395C 321.5,395.667 320.5,395.667 319.5,395C 295.692,369.88 281.692,340.046 277.5,305.5C 287.455,302.226 295.455,296.226 301.5,287.5 Z"/></g>
<g><path style="opacity:1" fill="#ebebf2" d="M 231.5,306.5 C 242.161,310.107 253.161,311.441 264.5,310.5C 268.096,328.966 270.262,347.633 271,366.5C 273.395,380.539 275.895,394.539 278.5,408.5C 251.548,413.178 225.381,410.511 200,400.5C 199.92,373.733 206.587,348.733 220,325.5C 223.845,319.139 227.678,312.806 231.5,306.5 Z"/></g>
<g><path style="opacity:1" fill="#68687f" d="M 59.5,311.5 C 58.5023,336.661 58.1689,361.995 58.5,387.5C 57.3365,361.337 57.1698,335.003 58,308.5C 59.0386,309.244 59.5386,310.244 59.5,311.5 Z"/></g>
<g><path style="opacity:1" fill="#b8b8ca" d="M 450.5,309.5 C 451.663,335.33 451.83,361.33 451,387.5C 442.833,379.333 434.667,371.167 426.5,363C 437.357,346.453 445.357,328.62 450.5,309.5 Z"/></g>
<g><path style="opacity:1" fill="#b7b7c9" d="M 59.5,311.5 C 64.8555,329.71 72.5222,346.877 82.5,363C 75.0074,371.659 67.0074,379.826 58.5,387.5C 58.1689,361.995 58.5023,336.661 59.5,311.5 Z"/></g>
<g><path style="opacity:1" fill="#737392" d="M 89.5,374.5 C 102.44,389.771 116.773,403.771 132.5,416.5C 115.014,434.486 97.3473,452.319 79.5,470C 60.306,480.042 45.1393,475.875 34,457.5C 29.96,447.268 30.96,437.601 37,428.5C 55.0872,410.915 72.5872,392.915 89.5,374.5 Z"/></g>
<g><path style="opacity:1" fill="#737392" d="M 418.5,374.5 C 436.465,391.965 454.299,409.632 472,427.5C 481.972,445.182 478.806,460.015 462.5,472C 452.833,476.667 443.167,476.667 433.5,472C 414.348,454.015 395.681,435.515 377.5,416.5C 393.2,404.467 406.867,390.467 418.5,374.5 Z"/></g>
<g><path style="opacity:1" fill="#373751" d="M 61.5,417.5 C 75.0673,416.862 84.234,422.862 89,435.5C 90.4487,456.718 80.6153,466.551 59.5,465C 49.9247,462.423 44.0913,456.257 42,446.5C 40.4611,431.237 46.9611,421.57 61.5,417.5 Z"/></g>
<g><path style="opacity:1" fill="#373751" d="M 440.5,417.5 C 459.488,417.985 468.655,427.652 468,446.5C 463.035,461.743 452.535,467.909 436.5,465C 420.825,456.809 416.658,444.643 424,428.5C 428.081,422.566 433.581,418.9 440.5,417.5 Z"/></g>
<g><path style="opacity:1" fill="#b8b8ca" d="M 194.5,447.5 C 170.006,448.498 145.339,448.831 120.5,448.5C 128.146,440.188 136.146,432.188 144.5,424.5C 160.15,434.324 176.817,441.991 194.5,447.5 Z"/></g>
<g><path style="opacity:1" fill="#b7b7c9" d="M 388.5,447.5 C 364.167,448.833 339.833,448.833 315.5,447.5C 333.159,442.004 349.825,434.338 365.5,424.5C 373.521,431.854 381.188,439.521 388.5,447.5 Z"/></g>
<g><path style="opacity:1" fill="#8d8da2" d="M 194.5,447.5 C 195.766,448.09 197.099,448.59 198.5,449C 171.761,449.828 145.761,449.661 120.5,448.5C 145.339,448.831 170.006,448.498 194.5,447.5 Z"/></g>
<g><path style="opacity:1" fill="#8d8da2" d="M 315.5,447.5 C 339.833,448.833 364.167,448.833 388.5,447.5C 389.289,447.783 389.956,448.283 390.5,449C 364.167,449.667 337.833,449.667 311.5,449C 312.745,448.209 314.078,447.709 315.5,447.5 Z"/></g>
</svg>
