<?xml version="1.0" encoding="UTF-8"?>
<!DOCTYPE svg PUBLIC "-//W3C//DTD SVG 1.1//EN" "http://www.w3.org/Graphics/SVG/1.1/DTD/svg11.dtd">
<svg xmlns="http://www.w3.org/2000/svg" version="1.1" width="512px" height="512px" style="shape-rendering:geometricPrecision; text-rendering:geometricPrecision; image-rendering:optimizeQuality; fill-rule:evenodd; clip-rule:evenodd" xmlns:xlink="http://www.w3.org/1999/xlink">
<g><path style="opacity:0.974" fill="#373751" d="M 91.5,20.5 C 203.834,20.3333 316.167,20.5 428.5,21C 435.57,22.9479 440.07,27.4479 442,34.5C 442.667,181.167 442.667,327.833 442,474.5C 439.602,482.9 434.102,487.733 425.5,489C 314.833,489.667 204.167,489.667 93.5,489C 84.4418,487.608 78.9418,482.442 77,473.5C 76.3333,327.5 76.3333,181.5 77,35.5C 79.3509,27.9841 84.1842,22.9841 91.5,20.5 Z"/></g>
<g><path style="opacity:1" fill="#b9b9cb" d="M 93.5,34.5 C 107.167,34.5 120.833,34.5 134.5,34.5C 134.333,51.17 134.5,67.8367 135,84.5C 136.736,91.2366 140.903,95.7366 147.5,98C 221.833,98.6667 296.167,98.6667 370.5,98C 377.237,96.2639 381.737,92.0972 384,85.5C 384.5,68.5033 384.667,51.5033 384.5,34.5C 398.504,34.3334 412.504,34.5001 426.5,35C 427,35.5 427.5,36 428,36.5C 428.667,181.833 428.667,327.167 428,472.5C 427.167,473.333 426.333,474.167 425.5,475C 314.833,475.667 204.167,475.667 93.5,475C 92.6667,474.167 91.8333,473.333 91,472.5C 90.3333,327.5 90.3333,182.5 91,37.5C 91.6979,36.3094 92.5313,35.3094 93.5,34.5 Z"/></g>
<g><path style="opacity:1" fill="#e8e16e" d="M 171.5,57.5 C 175.833,57.5 180.167,57.5 184.5,57.5C 184.5,66.8333 184.5,76.1667 184.5,85.5C 180.167,85.5 175.833,85.5 171.5,85.5C 171.5,76.1667 171.5,66.8333 171.5,57.5 Z"/></g>
<g><path style="opacity:1" fill="#b1ac65" d="M 210.5,58.5 C 206.5,58.5 202.5,58.5 198.5,58.5C 198.5,67.5 198.5,76.5 198.5,85.5C 197.506,76.3483 197.173,67.015 197.5,57.5C 202.032,57.1818 206.366,57.5151 210.5,58.5 Z"/></g>
<g><path style="opacity:1" fill="#eee86e" d="M 210.5,58.5 C 210.5,67.5 210.5,76.5 210.5,85.5C 206.5,85.5 202.5,85.5 198.5,85.5C 198.5,76.5 198.5,67.5 198.5,58.5C 202.5,58.5 206.5,58.5 210.5,58.5 Z"/></g>
<g><path style="opacity:1" fill="#a39e62" d="M 236.5,58.5 C 232.5,58.5 228.5,58.5 224.5,58.5C 224.5,67.5 224.5,76.5 224.5,85.5C 223.506,76.3483 223.173,67.015 223.5,57.5C 228.032,57.1818 232.366,57.5151 236.5,58.5 Z"/></g>
<g><path style="opacity:1" fill="#eee86e" d="M 236.5,58.5 C 236.5,67.5 236.5,76.5 236.5,85.5C 232.5,85.5 228.5,85.5 224.5,85.5C 224.5,76.5 224.5,67.5 224.5,58.5C 228.5,58.5 232.5,58.5 236.5,58.5 Z"/></g>
<g><path style="opacity:1" fill="#959160" d="M 262.5,58.5 C 258.5,58.5 254.5,58.5 250.5,58.5C 250.5,67.5 250.5,76.5 250.5,85.5C 249.506,76.3483 249.173,67.015 249.5,57.5C 254.032,57.1818 258.366,57.5151 262.5,58.5 Z"/></g>
<g><path style="opacity:1" fill="#eee86e" d="M 262.5,58.5 C 262.5,67.5 262.5,76.5 262.5,85.5C 258.5,85.5 254.5,85.5 250.5,85.5C 250.5,76.5 250.5,67.5 250.5,58.5C 254.5,58.5 258.5,58.5 262.5,58.5 Z"/></g>
<g><path style="opacity:1" fill="#eee86e" d="M 304.5,58.5 C 308.5,58.5 312.5,58.5 316.5,58.5C 316.5,67.5 316.5,76.5 316.5,85.5C 312.5,85.5 308.5,85.5 304.5,85.5C 304.5,76.5 304.5,67.5 304.5,58.5 Z"/></g>
<g><path style="opacity:1" fill="#938f5f" d="M 304.5,58.5 C 308.634,57.5151 312.968,57.1818 317.5,57.5C 317.827,67.015 317.494,76.3483 316.5,85.5C 316.5,76.5 316.5,67.5 316.5,58.5C 312.5,58.5 308.5,58.5 304.5,58.5 Z"/></g>
<g><path style="opacity:1" fill="#eee86e" d="M 330.5,58.5 C 334.5,58.5 338.5,58.5 342.5,58.5C 342.5,67.5 342.5,76.5 342.5,85.5C 338.5,85.5 334.5,85.5 330.5,85.5C 330.5,76.5 330.5,67.5 330.5,58.5 Z"/></g>
<g><path style="opacity:1" fill="#9f9b62" d="M 330.5,58.5 C 334.634,57.5151 338.968,57.1818 343.5,57.5C 343.827,67.015 343.494,76.3483 342.5,85.5C 342.5,76.5 342.5,67.5 342.5,58.5C 338.5,58.5 334.5,58.5 330.5,58.5 Z"/></g>
<g><path style="opacity:1" fill="#393953" d="M 120.5,127.5 C 136.837,127.333 153.17,127.5 169.5,128C 178.831,130.828 182.331,136.994 180,146.5C 178.091,151.722 174.591,155.555 169.5,158C 155.287,171.203 142.953,185.869 132.5,202C 121.751,206.712 114.251,203.546 110,192.5C 109.333,174.5 109.333,156.5 110,138.5C 112.02,133.315 115.52,129.648 120.5,127.5 Z"/></g>
<g><path style="opacity:1" fill="#373751" d="M 352.5,127.5 C 367.504,127.333 382.504,127.5 397.5,128C 403.553,129.053 407.387,132.553 409,138.5C 409.667,154.167 409.667,169.833 409,185.5C 406.179,195.334 399.679,199.167 389.5,197C 387.833,196 386.167,195 384.5,194C 373.648,176.825 360.148,161.992 344,149.5C 340.457,139.6 343.29,132.267 352.5,127.5 Z"/></g>
<g><path style="opacity:1" fill="#727291" d="M 123.5,140.5 C 138.167,140.5 152.833,140.5 167.5,140.5C 159.7,148.804 151.533,157.137 143,165.5C 136.609,173.716 130.442,182.05 124.5,190.5C 123.501,173.847 123.167,157.18 123.5,140.5 Z"/></g>
<g><path style="opacity:1" fill="#717190" d="M 356.5,140.5 C 369.746,140.177 382.913,140.511 396,141.5C 396.5,155.829 396.667,170.163 396.5,184.5C 395.178,184.67 394.011,184.337 393,183.5C 382.812,167.808 370.312,154.141 355.5,142.5C 355.863,141.817 356.196,141.15 356.5,140.5 Z"/></g>
<g><path style="opacity:1" fill="#393953" d="M 249.5,147.5 C 306.965,145.637 347.798,170.637 372,222.5C 385.684,259.19 382.851,294.523 363.5,328.5C 365.167,330.833 367.167,332.833 369.5,334.5C 373.638,329.261 378.971,327.094 385.5,328C 386.833,328.667 388.167,329.333 389.5,330C 397.105,337.36 404.605,344.86 412,352.5C 414.428,358.562 413.761,364.228 410,369.5C 395.471,384.363 380.638,398.863 365.5,413C 361.121,414.822 356.787,414.822 352.5,413C 343.296,405.463 335.129,396.963 328,387.5C 327.333,384.167 327.333,380.833 328,377.5C 329.848,374.989 331.681,372.489 333.5,370C 332.667,367.833 331.167,366.333 329,365.5C 292.686,388.165 254.519,391.665 214.5,376C 157.439,347.042 134.605,300.876 146,237.5C 162.095,186.233 196.595,156.233 249.5,147.5 Z"/></g>
<g><path style="opacity:1" fill="#f1f7f8" d="M 247.5,161.5 C 304.593,158.274 343.093,183.274 363,236.5C 371.744,265.7 368.411,293.366 353,319.5C 336,304.5 319,289.5 302,274.5C 303.826,256.993 297.659,243.16 283.5,233C 264.068,222.353 246.568,224.853 231,240.5C 219.077,256.686 218.411,273.352 229,290.5C 241.385,305.797 256.885,310.464 275.5,304.5C 290.686,321.185 305.686,338.018 320.5,355C 284.83,376.459 248.164,378.125 210.5,360C 170.508,335.516 152.675,299.683 157,252.5C 166.676,201.658 196.842,171.325 247.5,161.5 Z"/></g>
<g><path style="opacity:1" fill="#737392" d="M 253.5,240.5 C 276.552,238.17 288.219,248.503 288.5,271.5C 277.5,274.169 271.5,281.169 270.5,292.5C 246.806,295.737 234.972,285.404 235,261.5C 237.835,251.502 244.001,244.502 253.5,240.5 Z"/></g>
<g><path style="opacity:1" fill="#b7b7c9" d="M 288.5,284.5 C 291.564,284.144 294.231,284.977 296.5,287C 317.018,305.685 337.684,324.185 358.5,342.5C 359.583,343.365 359.749,344.365 359,345.5C 354.348,349.651 349.848,353.985 345.5,358.5C 344.109,359.645 342.776,359.645 341.5,358.5C 323.185,337.684 304.685,317.018 286,296.5C 283.511,291.757 284.345,287.757 288.5,284.5 Z"/></g>
<g><path style="opacity:1" fill="#383852" d="M 119.5,331.5 C 124.949,330.968 129.949,332.134 134.5,335C 161.484,381.338 201.817,406.671 255.5,411C 265.028,415.561 268.528,423.061 266,433.5C 264.719,439.904 260.885,443.737 254.5,445C 209.833,445.667 165.167,445.667 120.5,445C 114.902,443.069 111.402,439.236 110,433.5C 109.333,403.167 109.333,372.833 110,342.5C 111.627,337.382 114.793,333.715 119.5,331.5 Z"/></g>
<g><path style="opacity:1" fill="#727291" d="M 380.5,341.5 C 381.552,341.351 382.552,341.517 383.5,342C 389.348,347.681 395.015,353.515 400.5,359.5C 387.347,373.153 374.014,386.653 360.5,400C 359.5,400.667 358.5,400.667 357.5,400C 351.652,394.319 345.985,388.485 340.5,382.5C 353.855,368.813 367.188,355.146 380.5,341.5 Z"/></g>
<g><path style="opacity:1" fill="#737392" d="M 123.5,344.5 C 134.457,360.968 147.457,375.802 162.5,389C 188.63,410.435 218.63,421.935 252.5,423.5C 252.5,426.5 252.5,429.5 252.5,432.5C 209.5,432.5 166.5,432.5 123.5,432.5C 123.5,403.167 123.5,373.833 123.5,344.5 Z"/></g>
</svg>
