<?xml version="1.0" encoding="UTF-8"?>
<!DOCTYPE svg PUBLIC "-//W3C//DTD SVG 1.1//EN" "http://www.w3.org/Graphics/SVG/1.1/DTD/svg11.dtd">
<svg xmlns="http://www.w3.org/2000/svg" version="1.1" width="512px" height="512px" style="shape-rendering:geometricPrecision; text-rendering:geometricPrecision; image-rendering:optimizeQuality; fill-rule:evenodd; clip-rule:evenodd" xmlns:xlink="http://www.w3.org/1999/xlink">
<g><path style="opacity:0.966" fill="#383851" d="M 69.5,18.5 C 193.167,18.3333 316.834,18.5 440.5,19C 447.401,21.5683 451.901,26.4017 454,33.5C 454.667,180.833 454.667,328.167 454,475.5C 452.167,484 447,489.167 438.5,491C 315.833,491.667 193.167,491.667 70.5,491C 63.4017,488.901 58.5683,484.401 56,477.5C 55.3333,329.167 55.3333,180.833 56,32.5C 58.0166,25.3185 62.5166,20.6518 69.5,18.5 Z"/></g>
<g><path style="opacity:1" fill="#84d484" d="M 98.5,82.5 C 89.0144,81.5062 79.3478,81.1729 69.5,81.5C 69.5,66.5 69.5,51.5 69.5,36.5C 69.5106,34.9826 70.1772,33.8159 71.5,33C 193.833,32.3333 316.167,32.3333 438.5,33C 439.126,33.7504 439.626,34.5838 440,35.5C 440.667,181.833 440.667,328.167 440,474.5C 439.167,475.333 438.333,476.167 437.5,477C 315.833,477.667 194.167,477.667 72.5,477C 71.5838,476.626 70.7504,476.126 70,475.5C 69.5,396.167 69.3333,316.834 69.5,237.5C 79.5056,237.666 89.5056,237.5 99.5,237C 106.573,234.928 111.406,230.428 114,223.5C 114.667,180.833 114.667,138.167 114,95.5C 111.375,88.0342 106.208,83.7009 98.5,82.5 Z"/></g>
<g><path style="opacity:1" fill="#383851" d="M 306.5,53.5 C 315.839,53.3335 325.173,53.5002 334.5,54C 340.693,56.1926 344.859,60.3593 347,66.5C 347.667,128.167 347.667,189.833 347,251.5C 345.237,258.262 341.07,262.762 334.5,265C 325.167,265.667 315.833,265.667 306.5,265C 300.912,262.414 297.079,258.247 295,252.5C 294.333,190.167 294.333,127.833 295,65.5C 297.691,60.3111 301.524,56.3111 306.5,53.5 Z"/></g>
<g><path style="opacity:1" fill="#383851" d="M 375.5,53.5 C 385.898,53.1009 396.232,53.6009 406.5,55C 410.719,57.552 413.886,61.052 416,65.5C 416.667,127.833 416.667,190.167 416,252.5C 413.833,258.667 409.667,262.833 403.5,265C 394.167,265.667 384.833,265.667 375.5,265C 369.508,262.341 365.675,257.841 364,251.5C 363.333,189.833 363.333,128.167 364,66.5C 366.273,60.7304 370.106,56.397 375.5,53.5 Z"/></g>
<g><path style="opacity:1" fill="#393c52" d="M 144.5,60.5 C 153.627,61.428 155.627,65.5947 150.5,73C 143.17,74.6662 140.003,71.8329 141,64.5C 142.102,63.051 143.269,61.7177 144.5,60.5 Z"/></g>
<g><path style="opacity:1" fill="#383952" d="M 200.5,61.5 C 210.267,61.0726 212.6,64.9059 207.5,73C 200.17,74.6662 197.003,71.8329 198,64.5C 198.698,63.3094 199.531,62.3094 200.5,61.5 Z"/></g>
<g><path style="opacity:1" fill="#383951" d="M 257.5,61.5 C 267.267,61.0726 269.6,64.9059 264.5,73C 258.648,75.0395 255.315,73.0395 254.5,67C 254.863,64.8077 255.863,62.9744 257.5,61.5 Z"/></g>
<g><path style="opacity:1" fill="#fbf6b6" d="M 310.5,66.5 C 317.508,66.3337 324.508,66.5004 331.5,67C 332.333,67.8333 333.167,68.6667 334,69.5C 334.667,129.5 334.667,189.5 334,249.5C 333.167,250.333 332.333,251.167 331.5,252C 324.5,252.667 317.5,252.667 310.5,252C 309.333,251.5 308.5,250.667 308,249.5C 307.333,189.5 307.333,129.5 308,69.5C 309.045,68.6266 309.878,67.6266 310.5,66.5 Z"/></g>
<g><path style="opacity:1" fill="#fbf6b6" d="M 379.5,66.5 C 386.508,66.3337 393.508,66.5004 400.5,67C 401.333,67.8333 402.167,68.6667 403,69.5C 403.667,129.5 403.667,189.5 403,249.5C 402.5,250.667 401.667,251.5 400.5,252C 393.5,252.667 386.5,252.667 379.5,252C 378.667,251.167 377.833,250.333 377,249.5C 376.333,189.5 376.333,129.5 377,69.5C 378.045,68.6266 378.878,67.6266 379.5,66.5 Z"/></g>
<g><path style="opacity:1" fill="#3a3a52" d="M 317.5,79.5 C 321.684,78.7036 324.85,80.037 327,83.5C 327.667,89.1667 327.667,94.8333 327,100.5C 323.472,106.74 319.472,107.073 315,101.5C 314.333,95.1667 314.333,88.8333 315,82.5C 316.045,81.6266 316.878,80.6266 317.5,79.5 Z"/></g>
<g><path style="opacity:1" fill="#3a3a52" d="M 387.5,79.5 C 390.862,79.0695 393.695,80.0695 396,82.5C 396.667,88.8333 396.667,95.1667 396,101.5C 391.528,107.073 387.528,106.74 384,100.5C 383.333,94.8333 383.333,89.1667 384,83.5C 384.69,81.6498 385.856,80.3164 387.5,79.5 Z"/></g>
<g><path style="opacity:1" fill="#5c8269" d="M 69.5,36.5 C 69.5,51.5 69.5,66.5 69.5,81.5C 79.3478,81.1729 89.0144,81.5062 98.5,82.5C 88.5,82.5 78.5,82.5 68.5,82.5C 68.1705,66.9909 68.5038,51.6576 69.5,36.5 Z"/></g>
<g><path style="opacity:1" fill="#b9b9cb" d="M 69.5,95.5 C 79.1724,95.3335 88.8391,95.5002 98.5,96C 99.3333,96.8333 100.167,97.6667 101,98.5C 101.667,139.167 101.667,179.833 101,220.5C 100.167,221.333 99.3333,222.167 98.5,223C 88.8391,223.5 79.1724,223.666 69.5,223.5C 69.5,180.833 69.5,138.167 69.5,95.5 Z"/></g>
<g><path style="opacity:1" fill="#3a3a53" d="M 154.5,95.5 C 186.835,95.3334 219.168,95.5 251.5,96C 259.591,97.7589 264.758,102.592 267,110.5C 267.667,143.167 267.667,175.833 267,208.5C 264.833,216 260,220.833 252.5,223C 219.833,223.667 187.167,223.667 154.5,223C 147.43,221.052 142.93,216.552 141,209.5C 140.333,175.833 140.333,142.167 141,108.5C 144.076,102.589 148.576,98.2554 154.5,95.5 Z"/></g>
<g><path style="opacity:1" fill="#ececf3" d="M 155.5,109.5 C 187.502,109.333 219.502,109.5 251.5,110C 252.308,110.308 252.975,110.808 253.5,111.5C 254.659,143.125 254.826,174.791 254,206.5C 253.692,207.308 253.192,207.975 252.5,208.5C 219.97,209.83 187.47,209.83 155,208.5C 153.847,192.255 153.347,175.922 153.5,159.5C 153.667,143.833 153.833,128.167 154,112.5C 154.513,111.473 155.013,110.473 155.5,109.5 Z"/></g>
<g><path style="opacity:1" fill="#373751" d="M 318.5,116.5 C 322.355,115.845 325.188,117.179 327,120.5C 327.667,158.833 327.667,197.167 327,235.5C 324.839,239.124 321.672,240.291 317.5,239C 316.299,238.097 315.465,236.931 315,235.5C 314.333,196.833 314.333,158.167 315,119.5C 316.145,118.364 317.312,117.364 318.5,116.5 Z"/></g>
<g><path style="opacity:1" fill="#373751" d="M 387.5,116.5 C 390.862,116.07 393.695,117.07 396,119.5C 396.667,158.167 396.667,196.833 396,235.5C 393.369,239.629 389.869,240.462 385.5,238C 384.874,237.25 384.374,236.416 384,235.5C 383.333,197.167 383.333,158.833 384,120.5C 384.69,118.65 385.856,117.316 387.5,116.5 Z"/></g>
<g><path style="opacity:1" fill="#383952" d="M 221.5,240.5 C 241.359,237.678 255.859,245.012 265,262.5C 270.121,278.293 266.954,292.126 255.5,304C 240.579,314.474 225.246,315.141 209.5,306C 189.503,286.313 189.503,266.647 209.5,247C 213.434,244.536 217.434,242.369 221.5,240.5 Z"/></g>
<g><path style="opacity:1" fill="#f1f1f7" d="M 224.5,253.5 C 244.617,252.119 254.45,261.452 254,281.5C 249.056,295.394 239.222,301.228 224.5,299C 209.41,291.739 204.91,280.239 211,264.5C 214.299,259.279 218.799,255.612 224.5,253.5 Z"/></g>
<g><path style="opacity:1" fill="#3a3c53" d="M 144.5,269.5 C 153.561,270.377 155.561,274.544 150.5,282C 143.17,283.666 140.003,280.833 141,273.5C 141.69,271.65 142.856,270.316 144.5,269.5 Z"/></g>
<g><path style="opacity:1" fill="#383852" d="M 344.5,299.5 C 362.503,299.333 380.503,299.5 398.5,300C 404.841,301.675 409.341,305.508 412,311.5C 413.65,353.441 413.983,395.441 413,437.5C 410.928,444.573 406.428,449.406 399.5,452C 380.833,452.667 362.167,452.667 343.5,452C 338.065,450.231 334.232,446.731 332,441.5C 330.35,398.559 330.016,355.559 331,312.5C 333.442,305.888 337.942,301.555 344.5,299.5 Z"/></g>
<g><path style="opacity:1" fill="#b9b9cb" d="M 347.5,313.5 C 353.167,313.5 358.833,313.5 364.5,313.5C 364.5,320.5 364.5,327.5 364.5,334.5C 357.5,334.5 350.5,334.5 343.5,334.5C 343.334,328.158 343.5,321.825 344,315.5C 344.816,314.177 345.983,313.511 347.5,313.5 Z"/></g>
<g><path style="opacity:1" fill="#76768d" d="M 347.5,313.5 C 353.31,312.51 359.31,312.177 365.5,312.5C 365.825,320.019 365.492,327.352 364.5,334.5C 364.5,327.5 364.5,320.5 364.5,313.5C 358.833,313.5 353.167,313.5 347.5,313.5 Z"/></g>
<g><path style="opacity:1" fill="#5e5e76" d="M 396.5,313.5 C 390.5,313.5 384.5,313.5 378.5,313.5C 378.5,320.5 378.5,327.5 378.5,334.5C 377.508,327.352 377.175,320.019 377.5,312.5C 384.022,312.177 390.355,312.51 396.5,313.5 Z"/></g>
<g><path style="opacity:1" fill="#b9b9cb" d="M 396.5,313.5 C 397.458,313.953 398.292,314.619 399,315.5C 399.5,321.825 399.666,328.158 399.5,334.5C 392.5,334.5 385.5,334.5 378.5,334.5C 378.5,327.5 378.5,320.5 378.5,313.5C 384.5,313.5 390.5,313.5 396.5,313.5 Z"/></g>
<g><path style="opacity:1" fill="#393a52" d="M 110.5,329.5 C 172.168,329.333 233.834,329.5 295.5,330C 301.426,331.585 305.926,335.085 309,340.5C 310.584,349.758 310.917,359.091 310,368.5C 307.758,376.408 302.591,381.241 294.5,383C 233.833,383.667 173.167,383.667 112.5,383C 100.116,378.078 95.1163,368.912 97.5,355.5C 95.5148,343.47 99.8481,334.803 110.5,329.5 Z"/></g>
<g><path style="opacity:1" fill="#f9f4b5" d="M 113.5,342.5 C 173.501,342.333 233.501,342.5 293.5,343C 295.333,343.5 296.5,344.667 297,346.5C 297.667,352.833 297.667,359.167 297,365.5C 296.535,366.931 295.701,368.097 294.5,369C 234.167,369.667 173.833,369.667 113.5,369C 112.667,368.167 111.833,367.333 111,366.5C 110.333,359.833 110.333,353.167 111,346.5C 111.662,345.016 112.496,343.683 113.5,342.5 Z"/></g>
<g><path style="opacity:1" fill="#b9b9cb" d="M 343.5,348.5 C 350.5,348.5 357.5,348.5 364.5,348.5C 364.5,355.5 364.5,362.5 364.5,369.5C 364.5,362.5 364.5,355.5 364.5,348.5C 357.5,348.5 350.5,348.5 343.5,348.5 Z"/></g>
<g><path style="opacity:1" fill="#7d7d92" d="M 343.5,348.5 C 350.648,347.508 357.981,347.175 365.5,347.5C 365.825,355.019 365.492,362.352 364.5,369.5C 364.5,362.5 364.5,355.5 364.5,348.5C 357.5,348.5 350.5,348.5 343.5,348.5 Z"/></g>
<g><path style="opacity:1" fill="#b9b9cb" d="M 378.5,348.5 C 385.5,348.5 392.5,348.5 399.5,348.5C 399.5,355.5 399.5,362.5 399.5,369.5C 399.5,362.5 399.5,355.5 399.5,348.5C 392.5,348.5 385.5,348.5 378.5,348.5 Z"/></g>
<g><path style="opacity:1" fill="#74748a" d="M 378.5,348.5 C 385.648,347.508 392.981,347.175 400.5,347.5C 400.825,355.019 400.492,362.352 399.5,369.5C 399.5,362.5 399.5,355.5 399.5,348.5C 392.5,348.5 385.5,348.5 378.5,348.5 Z"/></g>
<g><path style="opacity:1" fill="#3a3a52" d="M 127.5,349.5 C 134.257,349.123 140.924,349.623 147.5,351C 150.314,354.936 149.981,358.603 146.5,362C 140.167,362.667 133.833,362.667 127.5,362C 124.932,360.873 123.598,358.873 123.5,356C 124.205,353.458 125.539,351.292 127.5,349.5 Z"/></g>
<g><path style="opacity:1" fill="#373751" d="M 164.5,349.5 C 202.835,349.333 241.168,349.5 279.5,350C 283.292,352.053 284.458,355.219 283,359.5C 282.167,360.333 281.333,361.167 280.5,362C 241.833,362.667 203.167,362.667 164.5,362C 159.217,357.886 159.217,353.719 164.5,349.5 Z"/></g>
<g><path style="opacity:1" fill="#b5b5c7" d="M 343.5,382.5 C 350.833,382.5 358.167,382.5 365.5,382.5C 365.5,389.833 365.5,397.167 365.5,404.5C 358.167,404.5 350.833,404.5 343.5,404.5C 343.5,397.167 343.5,389.833 343.5,382.5 Z"/></g>
<g><path style="opacity:1" fill="#b7b7c9" d="M 378.5,382.5 C 385.5,382.5 392.5,382.5 399.5,382.5C 399.5,389.833 399.5,397.167 399.5,404.5C 392.5,404.5 385.5,404.5 378.5,404.5C 378.5,397.167 378.5,389.833 378.5,382.5 Z"/></g>
<g><path style="opacity:1" fill="#373851" d="M 111.5,398.5 C 173.168,398.333 234.834,398.5 296.5,399C 303,401.5 307.5,406 310,412.5C 310.667,420.5 310.667,428.5 310,436.5C 308.268,444.565 303.435,449.732 295.5,452C 234.5,452.667 173.5,452.667 112.5,452C 100.269,447.219 95.2694,438.219 97.5,425C 95.2597,412.306 99.9263,403.473 111.5,398.5 Z"/></g>
<g><path style="opacity:1" fill="#f0ecb0" d="M 114.5,411.5 C 174.168,411.333 233.834,411.5 293.5,412C 294.667,413.167 295.833,414.333 297,415.5C 297.667,421.833 297.667,428.167 297,434.5C 296.167,436.667 294.667,438.167 292.5,439C 233.167,439.667 173.833,439.667 114.5,439C 113.333,437.833 112.167,436.667 111,435.5C 110.333,428.833 110.333,422.167 111,415.5C 111.69,413.65 112.856,412.316 114.5,411.5 Z"/></g>
<g><path style="opacity:1" fill="#b8b8cb" d="M 364.5,417.5 C 364.5,424.5 364.5,431.5 364.5,438.5C 358.5,438.5 352.5,438.5 346.5,438.5C 345.542,438.047 344.708,437.381 344,436.5C 343.5,430.175 343.334,423.842 343.5,417.5C 350.5,417.5 357.5,417.5 364.5,417.5 Z"/></g>
<g><path style="opacity:1" fill="#b7b7c9" d="M 378.5,417.5 C 385.5,417.5 392.5,417.5 399.5,417.5C 399.666,423.842 399.5,430.175 399,436.5C 398.167,437.333 397.333,438.167 396.5,439C 390.509,439.499 384.509,439.666 378.5,439.5C 378.5,432.167 378.5,424.833 378.5,417.5 Z"/></g>
<g><path style="opacity:1" fill="#3c3b53" d="M 127.5,418.5 C 133.176,418.334 138.843,418.501 144.5,419C 150.319,422.098 150.986,426.098 146.5,431C 139.833,431.667 133.167,431.667 126.5,431C 122.309,426.46 122.642,422.293 127.5,418.5 Z"/></g>
<g><path style="opacity:1" fill="#3a3a52" d="M 165.5,418.5 C 203.501,418.333 241.501,418.5 279.5,419C 283.292,421.053 284.458,424.219 283,428.5C 282.5,429.667 281.667,430.5 280.5,431C 241.5,431.667 202.5,431.667 163.5,431C 159.276,426.059 159.943,421.892 165.5,418.5 Z"/></g>
<g><path style="opacity:1" fill="#89899e" d="M 364.5,417.5 C 365.492,424.648 365.825,431.981 365.5,439.5C 358.978,439.823 352.645,439.49 346.5,438.5C 352.5,438.5 358.5,438.5 364.5,438.5C 364.5,431.5 364.5,424.5 364.5,417.5 Z"/></g>
</svg>
