<?xml version="1.0" encoding="UTF-8"?>
<!DOCTYPE svg PUBLIC "-//W3C//DTD SVG 1.1//EN" "http://www.w3.org/Graphics/SVG/1.1/DTD/svg11.dtd">
<svg xmlns="http://www.w3.org/2000/svg" version="1.1" width="512px" height="512px" style="shape-rendering:geometricPrecision; text-rendering:geometricPrecision; image-rendering:optimizeQuality; fill-rule:evenodd; clip-rule:evenodd" xmlns:xlink="http://www.w3.org/1999/xlink">
<g><path style="opacity:0.988" fill="#373751" d="M 202.5,15.5 C 237.502,15.3333 272.502,15.5 307.5,16C 310.333,17.5 312.5,19.6667 314,22.5C 314.5,33.8284 314.667,45.1618 314.5,56.5C 326.723,53.9409 335.223,58.2742 340,69.5C 340.667,206.833 340.667,344.167 340,481.5C 338.231,486.935 334.731,490.768 329.5,493C 317.224,494.584 304.891,494.917 292.5,494C 287.761,492.881 283.928,490.381 281,486.5C 273.788,464.439 259.955,458.606 239.5,469C 234.847,474.468 231.347,480.634 229,487.5C 225.889,490.944 222.056,493.111 217.5,494C 205.442,494.915 193.442,494.581 181.5,493C 176.269,490.768 172.769,486.935 171,481.5C 170.333,344.167 170.333,206.833 171,69.5C 175.464,58.5146 183.631,54.1813 195.5,56.5C 195.333,45.8281 195.5,35.1615 196,24.5C 196.873,20.4754 199.039,17.4754 202.5,15.5 Z"/></g>
<g><path style="opacity:1" fill="#e8e16e" d="M 209.5,28.5 C 213.833,28.5 218.167,28.5 222.5,28.5C 222.5,37.8333 222.5,47.1667 222.5,56.5C 218.167,56.5 213.833,56.5 209.5,56.5C 209.5,47.1667 209.5,37.8333 209.5,28.5 Z"/></g>
<g><path style="opacity:1" fill="#b2ae65" d="M 248.5,29.5 C 244.5,29.5 240.5,29.5 236.5,29.5C 236.5,38.5 236.5,47.5 236.5,56.5C 235.506,47.3483 235.173,38.015 235.5,28.5C 240.032,28.1818 244.366,28.5151 248.5,29.5 Z"/></g>
<g><path style="opacity:1" fill="#eee86e" d="M 248.5,29.5 C 248.5,38.5 248.5,47.5 248.5,56.5C 244.5,56.5 240.5,56.5 236.5,56.5C 236.5,47.5 236.5,38.5 236.5,29.5C 240.5,29.5 244.5,29.5 248.5,29.5 Z"/></g>
<g><path style="opacity:1" fill="#a5a062" d="M 274.5,29.5 C 270.5,29.5 266.5,29.5 262.5,29.5C 262.5,38.5 262.5,47.5 262.5,56.5C 261.506,47.3483 261.173,38.015 261.5,28.5C 266.032,28.1818 270.366,28.5151 274.5,29.5 Z"/></g>
<g><path style="opacity:1" fill="#eee86e" d="M 274.5,29.5 C 274.5,38.5 274.5,47.5 274.5,56.5C 270.5,56.5 266.5,56.5 262.5,56.5C 262.5,47.5 262.5,38.5 262.5,29.5C 266.5,29.5 270.5,29.5 274.5,29.5 Z"/></g>
<g><path style="opacity:1" fill="#969261" d="M 300.5,29.5 C 296.5,29.5 292.5,29.5 288.5,29.5C 288.5,38.5 288.5,47.5 288.5,56.5C 287.506,47.3483 287.173,38.015 287.5,28.5C 292.032,28.1818 296.366,28.5151 300.5,29.5 Z"/></g>
<g><path style="opacity:1" fill="#eee86e" d="M 300.5,29.5 C 300.5,38.5 300.5,47.5 300.5,56.5C 296.5,56.5 292.5,56.5 288.5,56.5C 288.5,47.5 288.5,38.5 288.5,29.5C 292.5,29.5 296.5,29.5 300.5,29.5 Z"/></g>
<g><path style="opacity:1" fill="#83d384" d="M 187.5,69.5 C 232.835,69.3333 278.168,69.5 323.5,70C 324.667,71.1667 325.833,72.3333 327,73.5C 327.667,207.833 327.667,342.167 327,476.5C 326.535,477.931 325.701,479.097 324.5,480C 314.5,480.667 304.5,480.667 294.5,480C 291.65,475.809 289.15,471.309 287,466.5C 275.93,452.03 261.43,446.863 243.5,451C 230.349,456.817 221.349,466.484 216.5,480C 206.5,480.667 196.5,480.667 186.5,480C 185.299,479.097 184.465,477.931 184,476.5C 183.333,342.167 183.333,207.833 184,73.5C 184.69,71.6498 185.856,70.3164 187.5,69.5 Z"/></g>
<g><path style="opacity:1" fill="#383952" d="M 217.5,90.5 C 242.502,90.3334 267.502,90.5 292.5,91C 300.591,92.7589 305.758,97.5922 308,105.5C 308.667,140.167 308.667,174.833 308,209.5C 306.614,217.471 302.114,222.638 294.5,225C 267.833,225.667 241.167,225.667 214.5,225C 208.508,222.341 204.675,217.841 203,211.5C 202.333,175.5 202.333,139.5 203,103.5C 206.162,97.1641 210.996,92.8308 217.5,90.5 Z"/></g>
<g><path style="opacity:1" fill="#737392" d="M 218.5,104.5 C 243.169,104.333 267.836,104.5 292.5,105C 293,105.5 293.5,106 294,106.5C 294.667,141.167 294.667,175.833 294,210.5C 293.5,211 293,211.5 292.5,212C 267.833,212.667 243.167,212.667 218.5,212C 217.667,211.167 216.833,210.333 216,209.5C 215.333,175.5 215.333,141.5 216,107.5C 216.698,106.309 217.531,105.309 218.5,104.5 Z"/></g>
<g><path style="opacity:1" fill="#383851" d="M 216.5,243.5 C 242.169,243.333 267.835,243.5 293.5,244C 301,246.167 305.833,251 308,258.5C 308.667,269.833 308.667,281.167 308,292.5C 306.363,300.138 301.863,305.305 294.5,308C 268.167,308.667 241.833,308.667 215.5,308C 208.903,305.737 204.736,301.237 203,294.5C 202.333,281.833 202.333,269.167 203,256.5C 205.73,250.238 210.23,245.904 216.5,243.5 Z"/></g>
<g><path style="opacity:1" fill="#737391" d="M 219.5,256.5 C 243.169,256.333 266.836,256.5 290.5,257C 291.931,257.465 293.097,258.299 294,259.5C 294.667,270.5 294.667,281.5 294,292.5C 293.167,293.333 292.333,294.167 291.5,295C 267.167,295.667 242.833,295.667 218.5,295C 217.667,294.167 216.833,293.333 216,292.5C 215.333,281.5 215.333,270.5 216,259.5C 217.145,258.364 218.312,257.364 219.5,256.5 Z"/></g>
<g><path style="opacity:1" fill="#383952" d="M 216.5,328.5 C 241.836,328.333 267.169,328.5 292.5,329C 300.565,330.732 305.732,335.565 308,343.5C 308.667,354.833 308.667,366.167 308,377.5C 306.268,385.565 301.435,390.732 293.5,393C 267.5,393.667 241.5,393.667 215.5,393C 208.903,390.737 204.736,386.237 203,379.5C 202.333,366.833 202.333,354.167 203,341.5C 206.101,335.563 210.601,331.23 216.5,328.5 Z"/></g>
<g><path style="opacity:1" fill="#737392" d="M 217.5,342.5 C 242.502,342.333 267.502,342.5 292.5,343C 293,343.5 293.5,344 294,344.5C 294.667,355.5 294.667,366.5 294,377.5C 293.167,378.333 292.333,379.167 291.5,380C 267.167,380.667 242.833,380.667 218.5,380C 217.667,379.167 216.833,378.333 216,377.5C 215.333,366.833 215.333,356.167 216,345.5C 216.513,344.473 217.013,343.473 217.5,342.5 Z"/></g>
<g><path style="opacity:1" fill="#383a52" d="M 226.5,411.5 C 229.97,410.875 232.804,411.875 235,414.5C 235.667,420.5 235.667,426.5 235,432.5C 230.098,436.986 226.098,436.319 223,430.5C 222.333,425.5 222.333,420.5 223,415.5C 223.69,413.65 224.856,412.316 226.5,411.5 Z"/></g>
<g><path style="opacity:1" fill="#3a3d53" d="M 252.5,411.5 C 256.639,410.704 259.805,412.037 262,415.5C 262.667,420.5 262.667,425.5 262,430.5C 257.578,437.059 253.245,437.059 249,430.5C 248.333,425.5 248.333,420.5 249,415.5C 250.032,413.973 251.199,412.64 252.5,411.5 Z"/></g>
<g><path style="opacity:1" fill="#383a52" d="M 278.5,411.5 C 282.684,410.704 285.85,412.037 288,415.5C 288.667,420.5 288.667,425.5 288,430.5C 284.819,436.252 280.819,436.919 276,432.5C 275.333,426.5 275.333,420.5 276,414.5C 277.045,413.627 277.878,412.627 278.5,411.5 Z"/></g>
</svg>
