<?xml version="1.0" encoding="UTF-8"?>
<!DOCTYPE svg PUBLIC "-//W3C//DTD SVG 1.1//EN" "http://www.w3.org/Graphics/SVG/1.1/DTD/svg11.dtd">
<svg xmlns="http://www.w3.org/2000/svg" version="1.1" width="512px" height="512px" style="shape-rendering:geometricPrecision; text-rendering:geometricPrecision; image-rendering:optimizeQuality; fill-rule:evenodd; clip-rule:evenodd" xmlns:xlink="http://www.w3.org/1999/xlink">
<g><path style="opacity:0.987" fill="#373751" d="M 57.5,29.5 C 191.167,29.3333 324.834,29.5 458.5,30C 466.155,31.6552 471.321,36.1552 474,43.5C 474.667,177.167 474.667,310.833 474,444.5C 472.237,451.262 468.07,455.762 461.5,458C 448.504,458.5 435.504,458.667 422.5,458.5C 422.666,464.176 422.499,469.843 422,475.5C 420.86,479.307 418.36,481.807 414.5,483C 398.167,483.667 381.833,483.667 365.5,483C 361.64,481.807 359.14,479.307 358,475.5C 357.501,469.843 357.334,464.176 357.5,458.5C 284.5,458.5 211.5,458.5 138.5,458.5C 138.666,464.509 138.499,470.509 138,476.5C 136.437,479.728 133.937,481.895 130.5,483C 114.5,483.667 98.5,483.667 82.5,483C 78.1037,482.27 75.2704,479.77 74,475.5C 73.5006,469.843 73.3339,464.176 73.5,458.5C 66.4112,458.884 59.4112,458.384 52.5,457C 47.8558,454.359 44.6891,450.525 43,445.5C 42.3333,311.167 42.3333,176.833 43,42.5C 45.9459,35.9616 50.7792,31.6282 57.5,29.5 Z"/></g>
<g><path style="opacity:1" fill="#737392" d="M 408.5,302.5 C 408.5,349.833 408.5,397.167 408.5,444.5C 363.833,444.5 319.167,444.5 274.5,444.5C 274.667,418.498 274.5,392.498 274,366.5C 272.786,364.951 271.286,363.785 269.5,363C 198.167,362.5 126.834,362.333 55.5,362.5C 55.0044,256.752 55.5044,151.085 57,45.5C 57.5,45 58,44.5 58.5,44C 136.166,43.5 213.833,43.3333 291.5,43.5C 291.333,128.501 291.5,213.501 292,298.5C 292.5,300.333 293.667,301.5 295.5,302C 333.165,302.5 370.832,302.667 408.5,302.5 Z"/></g>
<g><path style="opacity:1" fill="#737492" d="M 408.5,43.5 C 408.5,53.8333 408.5,64.1667 408.5,74.5C 373.833,74.5 339.167,74.5 304.5,74.5C 304.5,64.1667 304.5,53.8333 304.5,43.5C 339.167,43.5 373.833,43.5 408.5,43.5 Z"/></g>
<g><path style="opacity:1" fill="#4f4f6a" d="M 422.5,43.5 C 422.5,177.167 422.5,310.833 422.5,444.5C 434.167,444.5 445.833,444.5 457.5,444.5C 445.678,445.495 433.678,445.828 421.5,445.5C 421.167,311.332 421.5,177.332 422.5,43.5 Z"/></g>
<g><path style="opacity:1" fill="#737392" d="M 422.5,43.5 C 434.171,43.3335 445.838,43.5001 457.5,44C 458.667,44.5 459.5,45.3333 460,46.5C 460.667,178.5 460.667,310.5 460,442.5C 459.292,443.381 458.458,444.047 457.5,444.5C 445.833,444.5 434.167,444.5 422.5,444.5C 422.5,310.833 422.5,177.167 422.5,43.5 Z"/></g>
<g><path style="opacity:1" fill="#555571" d="M 408.5,43.5 C 409.494,53.9869 409.828,64.6536 409.5,75.5C 374.329,75.8317 339.329,75.4984 304.5,74.5C 339.167,74.5 373.833,74.5 408.5,74.5C 408.5,64.1667 408.5,53.8333 408.5,43.5 Z"/></g>
<g><path style="opacity:1" fill="#393953" d="M 76.5,75.5 C 83.8269,74.3293 86.9936,77.3293 86,84.5C 81.951,89.8184 77.951,89.8184 74,84.5C 72.9271,80.9003 73.7605,77.9003 76.5,75.5 Z"/></g>
<g><path style="opacity:1" fill="#393953" d="M 264.5,75.5 C 271.827,74.3293 274.994,77.3293 274,84.5C 269.902,89.8036 265.902,89.8036 262,84.5C 260.927,80.9003 261.76,77.9003 264.5,75.5 Z"/></g>
<g><path style="opacity:1" fill="#b9b9cb" d="M 304.5,88.5 C 338.833,88.5 373.167,88.5 407.5,88.5C 407.5,104.5 407.5,120.5 407.5,136.5C 373.167,136.5 338.833,136.5 304.5,136.5C 304.5,120.5 304.5,104.5 304.5,88.5 Z"/></g>
<g><path style="opacity:1" fill="#373751" d="M 77.5,105.5 C 141.501,105.333 205.501,105.5 269.5,106C 271.286,106.785 272.786,107.951 274,109.5C 274.667,174.5 274.667,239.5 274,304.5C 273.626,305.416 273.126,306.25 272.5,307C 239.584,308.16 206.584,308.66 173.5,308.5C 141.167,308.333 108.833,308.167 76.5,308C 76,307.5 75.5,307 75,306.5C 73.3406,240.915 73.0073,175.249 74,109.5C 75.3756,108.295 76.5423,106.962 77.5,105.5 Z"/></g>
<g><path style="opacity:1" fill="#393953" d="M 316.5,106.5 C 326.267,106.073 328.6,109.906 323.5,118C 316.17,119.666 313.003,116.833 314,109.5C 314.698,108.309 315.531,107.309 316.5,106.5 Z"/></g>
<g><path style="opacity:1" fill="#b9b9cb" d="M 86.5,119.5 C 144.5,119.5 202.5,119.5 260.5,119.5C 260.5,178.167 260.5,236.833 260.5,295.5C 202.5,295.5 144.5,295.5 86.5,295.5C 86.5,236.833 86.5,178.167 86.5,119.5 Z"/></g>
<g><path style="opacity:1" fill="#86869c" d="M 86.5,119.5 C 144.664,118.501 202.998,118.168 261.5,118.5C 261.832,177.669 261.499,236.669 260.5,295.5C 260.5,236.833 260.5,178.167 260.5,119.5C 202.5,119.5 144.5,119.5 86.5,119.5 Z"/></g>
<g><path style="opacity:1" fill="#737392" d="M 304.5,149.5 C 339.167,149.5 373.833,149.5 408.5,149.5C 408.5,160.5 408.5,171.5 408.5,182.5C 373.833,182.5 339.167,182.5 304.5,182.5C 304.5,171.5 304.5,160.5 304.5,149.5 Z"/></g>
<g><path style="opacity:1" fill="#b9b9cb" d="M 304.5,196.5 C 338.5,196.5 372.5,196.5 406.5,196.5C 406.5,212.167 406.5,227.833 406.5,243.5C 372.5,243.5 338.5,243.5 304.5,243.5C 304.5,227.833 304.5,212.167 304.5,196.5 Z"/></g>
<g><path style="opacity:1" fill="#3b3b54" d="M 317.5,213.5 C 325.835,213.67 328.169,217.503 324.5,225C 316.3,228.14 312.8,225.306 314,216.5C 315.145,215.364 316.312,214.364 317.5,213.5 Z"/></g>
<g><path style="opacity:1" fill="#86869b" d="M 304.5,196.5 C 338.663,195.502 372.996,195.168 407.5,195.5C 407.5,211.833 407.5,228.167 407.5,244.5C 372.996,244.832 338.663,244.498 304.5,243.5C 338.5,243.5 372.5,243.5 406.5,243.5C 406.5,227.833 406.5,212.167 406.5,196.5C 372.5,196.5 338.5,196.5 304.5,196.5 Z"/></g>
<g><path style="opacity:1" fill="#737492" d="M 304.5,257.5 C 339.167,257.5 373.833,257.5 408.5,257.5C 408.5,267.833 408.5,278.167 408.5,288.5C 373.833,288.5 339.167,288.5 304.5,288.5C 304.5,278.167 304.5,267.833 304.5,257.5 Z"/></g>
<g><path style="opacity:1" fill="#393953" d="M 76.5,323.5 C 85.5226,323.062 88.1893,326.895 84.5,335C 78.35,337.925 74.6834,336.092 73.5,329.5C 73.6284,327.045 74.6284,325.045 76.5,323.5 Z"/></g>
<g><path style="opacity:1" fill="#393953" d="M 264.5,323.5 C 273.513,323.04 276.18,326.873 272.5,335C 266.152,338.291 262.486,336.458 261.5,329.5C 261.628,327.045 262.628,325.045 264.5,323.5 Z"/></g>
<g><path style="opacity:1" fill="#b9b9cb" d="M 59.5,444.5 C 58.1667,443.833 57.1667,442.833 56.5,441.5C 56.5,419.833 56.5,398.167 56.5,376.5C 124.5,376.5 192.5,376.5 260.5,376.5C 260.5,399.167 260.5,421.833 260.5,444.5C 193.5,444.5 126.5,444.5 59.5,444.5 Z"/></g>
<g><path style="opacity:1" fill="#86869b" d="M 59.5,444.5 C 126.5,444.5 193.5,444.5 260.5,444.5C 260.5,421.833 260.5,399.167 260.5,376.5C 192.5,376.5 124.5,376.5 56.5,376.5C 56.5,398.167 56.5,419.833 56.5,441.5C 55.5026,419.673 55.1693,397.673 55.5,375.5C 124.167,375.5 192.833,375.5 261.5,375.5C 261.5,398.833 261.5,422.167 261.5,445.5C 193.998,445.832 126.665,445.499 59.5,444.5 Z"/></g>
<g><path style="opacity:1" fill="#3c3c56" d="M 89.5,403.5 C 104.17,403.333 118.837,403.5 133.5,404C 140.059,408.245 140.059,412.578 133.5,417C 118.833,417.667 104.167,417.667 89.5,417C 84.2086,412.423 84.2086,407.923 89.5,403.5 Z"/></g>
<g><path style="opacity:1" fill="#555571" d="M 408.5,302.5 C 409.499,349.997 409.832,397.664 409.5,445.5C 364.33,445.832 319.33,445.499 274.5,444.5C 319.167,444.5 363.833,444.5 408.5,444.5C 408.5,397.167 408.5,349.833 408.5,302.5 Z"/></g>
</svg>
