<?xml version="1.0" encoding="UTF-8"?>
<!DOCTYPE svg PUBLIC "-//W3C//DTD SVG 1.1//EN" "http://www.w3.org/Graphics/SVG/1.1/DTD/svg11.dtd">
<svg xmlns="http://www.w3.org/2000/svg" version="1.1" width="512px" height="512px" style="shape-rendering:geometricPrecision; text-rendering:geometricPrecision; image-rendering:optimizeQuality; fill-rule:evenodd; clip-rule:evenodd" xmlns:xlink="http://www.w3.org/1999/xlink">
<g><path style="opacity:0.971" fill="#373751" d="M 37.5,90.5 C 182.834,90.3333 328.167,90.5 473.5,91C 482.653,91.8194 488.487,96.6527 491,105.5C 491.667,205.833 491.667,306.167 491,406.5C 488.833,414 484,418.833 476.5,421C 329.167,421.667 181.833,421.667 34.5,421C 27,418.833 22.1667,414 20,406.5C 19.3333,306.167 19.3333,205.833 20,105.5C 22.6795,96.6432 28.5128,91.6432 37.5,90.5 Z"/></g>
<g><path style="opacity:1" fill="#b9b9cb" d="M 36.5,104.5 C 182.5,104.333 328.5,104.5 474.5,105C 475.333,105.833 476.167,106.667 477,107.5C 477.831,206.874 477.664,306.207 476.5,405.5C 475.975,406.192 475.308,406.692 474.5,407C 328.127,407.832 181.793,407.665 35.5,406.5C 34.8076,405.975 34.3076,405.308 34,404.5C 33.3333,305.5 33.3333,206.5 34,107.5C 35.045,106.627 35.8783,105.627 36.5,104.5 Z"/></g>
<g><path style="opacity:1" fill="#383852" d="M 63.5,139.5 C 132.501,139.333 201.501,139.5 270.5,140C 277.573,142.072 282.406,146.572 285,153.5C 285.667,222.5 285.667,291.5 285,360.5C 282.64,368.858 277.14,373.691 268.5,375C 200.5,375.667 132.5,375.667 64.5,375C 57,372.833 52.1667,368 50,360.5C 49.3333,291.833 49.3333,223.167 50,154.5C 52.2632,147.407 56.7632,142.407 63.5,139.5 Z"/></g>
<g><path style="opacity:1" fill="#373751" d="M 326.5,139.5 C 366.835,139.333 407.168,139.5 447.5,140C 454.026,142.526 458.526,147.026 461,153.5C 461.667,183.167 461.667,212.833 461,242.5C 458.474,249.026 453.974,253.526 447.5,256C 406.833,256.667 366.167,256.667 325.5,256C 318.455,253.623 314.288,248.79 313,241.5C 312.333,211.833 312.333,182.167 313,152.5C 315.442,145.888 319.942,141.555 326.5,139.5 Z"/></g>
<g><path style="opacity:1" fill="#727290" d="M 329.5,152.5 C 367.835,152.333 406.168,152.5 444.5,153C 445.667,154.167 446.833,155.333 448,156.5C 448.983,184.92 448.65,213.253 447,241.5C 446.25,242.126 445.416,242.626 444.5,243C 405.833,243.667 367.167,243.667 328.5,243C 327.299,242.097 326.465,240.931 326,239.5C 325.333,211.833 325.333,184.167 326,156.5C 326.69,154.65 327.856,153.316 329.5,152.5 Z"/></g>
<g><path style="opacity:1" fill="#f0f0f6" d="M 151.5,157.5 C 154.5,157.5 157.5,157.5 160.5,157.5C 160.5,164.5 160.5,171.5 160.5,178.5C 143.719,179.704 128.886,185.704 116,196.5C 111.167,191.667 106.333,186.833 101.5,182C 116.088,169.53 132.754,161.363 151.5,157.5 Z"/></g>
<g><path style="opacity:1" fill="#f1f1f6" d="M 174.5,157.5 C 196.934,159.141 216.601,167.308 233.5,182C 228.652,187.015 223.652,191.848 218.5,196.5C 205.871,185.621 191.204,179.621 174.5,178.5C 174.5,171.5 174.5,164.5 174.5,157.5 Z"/></g>
<g><path style="opacity:1" fill="#373751" d="M 358.5,160.5 C 376.836,160.333 395.17,160.5 413.5,161C 415.246,161.471 416.913,162.138 418.5,163C 423.721,168.221 428.887,173.387 434,178.5C 434.667,195.167 434.667,211.833 434,228.5C 433.027,232.406 430.527,234.573 426.5,235C 399.5,235.667 372.5,235.667 345.5,235C 342.272,233.437 340.105,230.937 339,227.5C 338.333,211.833 338.333,196.167 339,180.5C 339.667,179.167 340.333,177.833 341,176.5C 347.029,171.301 352.862,165.967 358.5,160.5 Z"/></g>
<g><path style="opacity:1" fill="#727291" d="M 363.5,173.5 C 379.17,173.333 394.837,173.5 410.5,174C 413.717,177.517 417.217,180.684 421,183.5C 421.5,196.496 421.667,209.496 421.5,222.5C 398.5,222.5 375.5,222.5 352.5,222.5C 352.333,209.496 352.5,196.496 353,183.5C 356.396,179.935 359.896,176.602 363.5,173.5 Z"/></g>
<g><path style="opacity:1" fill="#f1f1f6" d="M 91.5,191.5 C 96.8123,196.146 101.812,201.146 106.5,206.5C 95.6179,219.141 89.6179,233.808 88.5,250.5C 81.5,250.5 74.5,250.5 67.5,250.5C 69.257,228.215 77.257,208.548 91.5,191.5 Z"/></g>
<g><path style="opacity:1" fill="#f0f0f5" d="M 154.5,191.5 C 156.5,191.5 158.5,191.5 160.5,191.5C 160.5,199.167 160.5,206.833 160.5,214.5C 153.459,214.851 147.126,217.185 141.5,221.5C 136.015,216.515 130.681,211.348 125.5,206C 134.154,199.006 143.821,194.173 154.5,191.5 Z"/></g>
<g><path style="opacity:1" fill="#f1f1f6" d="M 174.5,191.5 C 187.585,193.047 199.252,197.88 209.5,206C 204.319,211.348 198.985,216.515 193.5,221.5C 187.82,217.385 181.487,215.051 174.5,214.5C 174.5,206.833 174.5,199.167 174.5,191.5 Z"/></g>
<g><path style="opacity:1" fill="#f1f1f6" d="M 242.5,191.5 C 257.647,208.144 265.98,227.811 267.5,250.5C 260.5,250.5 253.5,250.5 246.5,250.5C 245.299,233.731 239.299,218.897 228.5,206C 233.37,201.298 238.037,196.465 242.5,191.5 Z"/></g>
<g><path style="opacity:1" fill="#383852" d="M 365.5,194.5 C 368.862,194.07 371.695,195.07 374,197.5C 374.667,202.833 374.667,208.167 374,213.5C 369.676,218.932 365.676,218.599 362,212.5C 361.333,207.833 361.333,203.167 362,198.5C 363.376,197.295 364.542,195.962 365.5,194.5 Z"/></g>
<g><path style="opacity:1" fill="#3a3a54" d="M 402.5,194.5 C 406.888,193.943 410.055,195.61 412,199.5C 412.667,203.833 412.667,208.167 412,212.5C 407.667,219.167 403.333,219.167 399,212.5C 398.333,207.833 398.333,203.167 399,198.5C 400.376,197.295 401.542,195.962 402.5,194.5 Z"/></g>
<g><path style="opacity:1" fill="#f1f1f6" d="M 115.5,215.5 C 121.146,220.479 126.479,225.812 131.5,231.5C 127.385,237.18 125.051,243.513 124.5,250.5C 116.833,250.5 109.167,250.5 101.5,250.5C 103.122,237.593 107.789,225.926 115.5,215.5 Z"/></g>
<g><path style="opacity:1" fill="#f0f0f6" d="M 218.5,215.5 C 227.01,225.535 232.01,237.202 233.5,250.5C 225.833,250.5 218.167,250.5 210.5,250.5C 209.946,243.504 207.613,237.171 203.5,231.5C 208.522,226.146 213.522,220.813 218.5,215.5 Z"/></g>
<g><path style="opacity:1" fill="#f2f2f7" d="M 161.5,226.5 C 180.449,225.05 192.615,233.383 198,251.5C 198.137,278.026 184.971,289.859 158.5,287C 143.086,280.677 135.919,269.177 137,252.5C 140.25,239.086 148.417,230.419 161.5,226.5 Z"/></g>
<g><path style="opacity:1" fill="#a7a7b4" d="M 88.5,264.5 C 81.8333,264.5 75.1667,264.5 68.5,264.5C 68.5,265.833 68.5,267.167 68.5,268.5C 67.5489,267.081 67.2155,265.415 67.5,263.5C 74.6866,263.175 81.6866,263.509 88.5,264.5 Z"/></g>
<g><path style="opacity:1" fill="#a3a3b0" d="M 124.5,265.5 C 117.254,264.536 109.92,264.203 102.5,264.5C 102.5,265.833 102.5,267.167 102.5,268.5C 101.549,267.081 101.216,265.415 101.5,263.5C 109.573,262.868 117.24,263.535 124.5,265.5 Z"/></g>
<g><path style="opacity:1" fill="#a4a4b2" d="M 211.5,264.5 C 218.648,263.508 225.981,263.175 233.5,263.5C 233.795,265.735 233.461,267.735 232.5,269.5C 232.5,267.833 232.5,266.167 232.5,264.5C 225.5,264.5 218.5,264.5 211.5,264.5 Z"/></g>
<g><path style="opacity:1" fill="#f1f1f6" d="M 88.5,264.5 C 90.0876,281.004 96.0876,295.67 106.5,308.5C 102.167,313.5 97.5,318.167 92.5,322.5C 81.1072,310.722 73.6072,296.722 70,280.5C 68.9847,276.56 68.4847,272.56 68.5,268.5C 68.5,267.167 68.5,265.833 68.5,264.5C 75.1667,264.5 81.8333,264.5 88.5,264.5 Z"/></g>
<g><path style="opacity:1" fill="#f1f1f6" d="M 124.5,265.5 C 125.587,271.839 127.92,277.673 131.5,283C 127.03,288.637 122.03,293.804 116.5,298.5C 108.628,290.085 103.961,280.085 102.5,268.5C 102.5,267.167 102.5,265.833 102.5,264.5C 109.92,264.203 117.254,264.536 124.5,265.5 Z"/></g>
<g><path style="opacity:1" fill="#f1f1f6" d="M 211.5,264.5 C 218.5,264.5 225.5,264.5 232.5,264.5C 232.5,266.167 232.5,267.833 232.5,269.5C 230.749,280.667 226.082,290.333 218.5,298.5C 212.97,293.804 207.97,288.637 203.5,283C 207.061,277.126 209.728,270.959 211.5,264.5 Z"/></g>
<g><path style="opacity:1" fill="#efeff5" d="M 246.5,263.5 C 253.5,263.5 260.5,263.5 267.5,263.5C 266.143,282.073 260.309,299.073 250,314.5C 248.022,317.645 245.522,320.312 242.5,322.5C 237.5,318.167 232.833,313.5 228.5,308.5C 239.2,295.404 245.2,280.404 246.5,263.5 Z"/></g>
<g><path style="opacity:1" fill="#f1f1f6" d="M 160.5,300.5 C 161.13,308.243 160.463,315.576 158.5,322.5C 146.157,321.503 135.49,316.836 126.5,308.5C 131.196,302.97 136.363,297.97 142,293.5C 147.587,297.378 153.754,299.711 160.5,300.5 Z"/></g>
<g><path style="opacity:1" fill="#f1f1f7" d="M 178.5,322.5 C 177.167,322.5 175.833,322.5 174.5,322.5C 174.5,315.167 174.5,307.833 174.5,300.5C 181.237,299.644 187.404,297.31 193,293.5C 198.637,297.97 203.804,302.97 208.5,308.5C 199.917,316.036 189.917,320.702 178.5,322.5 Z"/></g>
<g><path style="opacity:1" fill="#7f7f91" d="M 160.5,300.5 C 161.492,307.982 161.825,315.648 161.5,323.5C 160.209,323.737 159.209,323.404 158.5,322.5C 160.463,315.576 161.13,308.243 160.5,300.5 Z"/></g>
<g><path style="opacity:1" fill="#717184" d="M 174.5,300.5 C 174.5,307.833 174.5,315.167 174.5,322.5C 175.833,322.5 177.167,322.5 178.5,322.5C 177.081,323.451 175.415,323.784 173.5,323.5C 173.175,315.648 173.508,307.982 174.5,300.5 Z"/></g>
<g><path style="opacity:1" fill="#393953" d="M 343.5,309.5 C 371.835,309.333 400.169,309.5 428.5,310C 435.667,311.833 440.167,316.333 442,323.5C 442.667,335.833 442.667,348.167 442,360.5C 439.64,368.858 434.14,373.691 425.5,375C 399.167,375.667 372.833,375.667 346.5,375C 339,372.833 334.167,368 332,360.5C 331.333,347.833 331.333,335.167 332,322.5C 334.3,316.706 338.133,312.373 343.5,309.5 Z"/></g>
<g><path style="opacity:1" fill="#f1f1f6" d="M 160.5,336.5 C 160.5,343.167 160.5,349.833 160.5,356.5C 158.5,356.5 156.5,356.5 154.5,356.5C 134.443,354.053 117.11,346.053 102.5,332.5C 106.833,327.5 111.5,322.833 116.5,318.5C 129.344,328.921 144.011,334.921 160.5,336.5 Z"/></g>
<g><path style="opacity:1" fill="#f1f1f6" d="M 178.5,356.5 C 177.167,356.5 175.833,356.5 174.5,356.5C 174.5,349.833 174.5,343.167 174.5,336.5C 190.891,334.595 205.557,328.595 218.5,318.5C 223.5,323.167 228.5,327.833 233.5,332.5C 217.731,346.214 199.397,354.214 178.5,356.5 Z"/></g>
<g><path style="opacity:1" fill="#737392" d="M 347.5,322.5 C 363.167,322.5 378.833,322.5 394.5,322.5C 394.5,335.5 394.5,348.5 394.5,361.5C 378.83,361.667 363.163,361.5 347.5,361C 346.667,360.167 345.833,359.333 345,358.5C 344.333,347.5 344.333,336.5 345,325.5C 346.045,324.627 346.878,323.627 347.5,322.5 Z"/></g>
<g><path style="opacity:1" fill="#ebebf1" d="M 407.5,322.5 C 413.842,322.334 420.175,322.5 426.5,323C 427.701,323.903 428.535,325.069 429,326.5C 429.667,336.833 429.667,347.167 429,357.5C 428.535,358.931 427.701,360.097 426.5,361C 420.175,361.5 413.842,361.666 407.5,361.5C 407.5,348.5 407.5,335.5 407.5,322.5 Z"/></g>
<g><path style="opacity:1" fill="#818193" d="M 160.5,336.5 C 161.491,343.313 161.825,350.313 161.5,357.5C 158.941,357.802 156.607,357.468 154.5,356.5C 156.5,356.5 158.5,356.5 160.5,356.5C 160.5,349.833 160.5,343.167 160.5,336.5 Z"/></g>
<g><path style="opacity:1" fill="#757587" d="M 174.5,336.5 C 174.5,343.167 174.5,349.833 174.5,356.5C 175.833,356.5 177.167,356.5 178.5,356.5C 177.081,357.451 175.415,357.784 173.5,357.5C 173.175,350.313 173.509,343.313 174.5,336.5 Z"/></g>
</svg>
