<?xml version="1.0" encoding="UTF-8"?>
<!DOCTYPE svg PUBLIC "-//W3C//DTD SVG 1.1//EN" "http://www.w3.org/Graphics/SVG/1.1/DTD/svg11.dtd">
<svg xmlns="http://www.w3.org/2000/svg" version="1.1" width="512px" height="512px" style="shape-rendering:geometricPrecision; text-rendering:geometricPrecision; image-rendering:optimizeQuality; fill-rule:evenodd; clip-rule:evenodd" xmlns:xlink="http://www.w3.org/1999/xlink">
<g><path style="opacity:0.982" fill="#383951" d="M 33.5,52.5 C 181.834,52.3333 330.167,52.5 478.5,53C 483.428,54.9268 486.594,58.4268 488,63.5C 488.667,72.5 488.667,81.5 488,90.5C 484.702,94.7998 481.035,98.7998 477,102.5C 476.333,108.833 476.333,115.167 477,121.5C 481.035,125.2 484.702,129.2 488,133.5C 488.667,152.167 488.667,170.833 488,189.5C 486.813,193.709 484.313,196.876 480.5,199C 474.258,200.37 467.925,200.87 461.5,200.5C 461.667,211.172 461.5,221.839 461,232.5C 460.167,236 458,238.167 454.5,239C 439,239.167 423.5,239.333 408,239.5C 391.745,239.653 375.578,239.153 359.5,238C 356.819,235.806 355.319,232.973 355,229.5C 354.5,219.839 354.334,210.172 354.5,200.5C 350.167,200.5 345.833,200.5 341.5,200.5C 341.667,211.505 341.5,222.505 341,233.5C 339.749,236.381 337.583,238.214 334.5,239C 242.167,239.667 149.833,239.667 57.5,239C 54.4173,238.214 52.2506,236.381 51,233.5C 50.5002,222.505 50.3335,211.505 50.5,200.5C 44.0749,200.87 37.7416,200.37 31.5,199C 27.5095,197.01 25.0095,193.843 24,189.5C 23.3333,170.5 23.3333,151.5 24,132.5C 27.2981,128.2 30.9648,124.2 35,120.5C 35.6667,114.5 35.6667,108.5 35,102.5C 30.9648,98.7998 27.2981,94.7998 24,90.5C 23.3333,81.5 23.3333,72.5 24,63.5C 25.5992,58.406 28.7658,54.7393 33.5,52.5 Z"/></g>
<g><path style="opacity:1" fill="#84d484" d="M 50.5,65.5 C 191.834,65.6173 333.167,65.9506 474.5,66.5C 474.666,73.175 474.5,79.8417 474,86.5C 469.694,89.4727 466.027,93.1394 463,97.5C 462.333,106.833 462.333,116.167 463,125.5C 466.298,129.8 469.965,133.8 474,137.5C 474.5,153.83 474.667,170.163 474.5,186.5C 328.833,186.5 183.167,186.5 37.5,186.5C 37.3334,170.163 37.5001,153.83 38,137.5C 42.0352,133.8 45.7019,129.8 49,125.5C 49.6667,116.167 49.6667,106.833 49,97.5C 45.3333,93.8333 41.6667,90.1667 38,86.5C 37.5004,79.8417 37.3337,73.175 37.5,66.5C 42.0323,66.8182 46.3656,66.4849 50.5,65.5 Z"/></g>
<g><path style="opacity:1" fill="#383952" d="M 84.5,85.5 C 96.8378,85.3335 109.171,85.5001 121.5,86C 127.974,88.4742 132.474,92.9742 135,99.5C 135.667,116.833 135.667,134.167 135,151.5C 133.423,158.745 129.256,163.911 122.5,167C 109.833,167.667 97.1667,167.667 84.5,167C 78.1818,164.557 74.0152,160.057 72,153.5C 71.3333,135.5 71.3333,117.5 72,99.5C 73.9265,92.7448 78.0932,88.0781 84.5,85.5 Z"/></g>
<g><path style="opacity:1" fill="#373751" d="M 185.5,85.5 C 198.504,85.3334 211.504,85.5001 224.5,86C 228.948,88.1145 232.448,91.2811 235,95.5C 236.641,114.743 236.975,134.077 236,153.5C 234.167,160.667 229.667,165.167 222.5,167C 210.5,167.667 198.5,167.667 186.5,167C 179.455,164.623 175.288,159.79 174,152.5C 173.333,134.5 173.333,116.5 174,98.5C 176.3,92.7063 180.133,88.373 185.5,85.5 Z"/></g>
<g><path style="opacity:1" fill="#373751" d="M 287.5,85.5 C 299.838,85.3335 312.171,85.5001 324.5,86C 331.237,87.7361 335.737,91.9028 338,98.5C 338.667,116.833 338.667,135.167 338,153.5C 336.167,160.667 331.667,165.167 324.5,167C 312.167,167.667 299.833,167.667 287.5,167C 283.052,164.886 279.552,161.719 277,157.5C 275.37,137.565 275.036,117.565 276,97.5C 278.691,92.3111 282.524,88.3111 287.5,85.5 Z"/></g>
<g><path style="opacity:1" fill="#383952" d="M 389.5,85.5 C 401.838,85.3335 414.171,85.5001 426.5,86C 432.365,87.5109 436.532,91.0109 439,96.5C 440.627,114.768 440.96,133.101 440,151.5C 438.432,158.737 434.266,163.904 427.5,167C 414.833,167.667 402.167,167.667 389.5,167C 384.333,164.5 380.5,160.667 378,155.5C 376.386,136.886 376.052,118.219 377,99.5C 379.124,92.8571 383.291,88.1904 389.5,85.5 Z"/></g>
<g><path style="opacity:1" fill="#737392" d="M 87.5,98.5 C 97.8387,98.3335 108.172,98.5002 118.5,99C 119.416,99.3742 120.25,99.8742 121,100.5C 121.667,117.5 121.667,134.5 121,151.5C 120.692,152.308 120.192,152.975 119.5,153.5C 108.88,154.643 98.2135,154.81 87.5,154C 87,153.5 86.5,153 86,152.5C 84.3631,135.925 84.0297,119.258 85,102.5C 85.6622,101.016 86.4955,99.6828 87.5,98.5 Z"/></g>
<g><path style="opacity:1" fill="#737392" d="M 189.5,98.5 C 199.839,98.3335 210.172,98.5002 220.5,99C 221.333,99.8333 222.167,100.667 223,101.5C 223.667,118.167 223.667,134.833 223,151.5C 222.167,152.333 221.333,153.167 220.5,154C 210.167,154.667 199.833,154.667 189.5,154C 188.667,153.167 187.833,152.333 187,151.5C 186.333,134.833 186.333,118.167 187,101.5C 188.045,100.627 188.878,99.6266 189.5,98.5 Z"/></g>
<g><path style="opacity:1" fill="#737392" d="M 291.5,98.5 C 301.839,98.3335 312.172,98.5002 322.5,99C 323.333,99.8333 324.167,100.667 325,101.5C 325.667,117.833 325.667,134.167 325,150.5C 324.626,151.416 324.126,152.25 323.5,153C 312.932,154.619 302.265,154.952 291.5,154C 290.667,153.167 289.833,152.333 289,151.5C 288.333,134.833 288.333,118.167 289,101.5C 290.045,100.627 290.878,99.6266 291.5,98.5 Z"/></g>
<g><path style="opacity:1" fill="#737392" d="M 392.5,98.5 C 402.839,98.3335 413.172,98.5002 423.5,99C 424.416,99.3742 425.25,99.8742 426,100.5C 426.825,118.074 426.658,135.574 425.5,153C 419.939,154.121 414.273,154.621 408.5,154.5C 403.5,154.333 398.5,154.167 393.5,154C 392.584,153.626 391.75,153.126 391,152.5C 390.333,135.167 390.333,117.833 391,100.5C 391.717,99.9558 392.217,99.2891 392.5,98.5 Z"/></g>
<g><path style="opacity:1" fill="#eee86e" d="M 96.5,200.5 C 96.5,208.833 96.5,217.167 96.5,225.5C 85.8333,225.5 75.1667,225.5 64.5,225.5C 64.5,217.167 64.5,208.833 64.5,200.5C 75.1667,200.5 85.8333,200.5 96.5,200.5 Z"/></g>
<g><path style="opacity:1" fill="#eee86e" d="M 110.5,200.5 C 121.167,200.5 131.833,200.5 142.5,200.5C 142.5,208.833 142.5,217.167 142.5,225.5C 131.833,225.5 121.167,225.5 110.5,225.5C 110.5,217.167 110.5,208.833 110.5,200.5 Z"/></g>
<g><path style="opacity:1" fill="#eae36e" d="M 156.5,200.5 C 167.5,200.5 178.5,200.5 189.5,200.5C 189.5,209.167 189.5,217.833 189.5,226.5C 178.5,226.5 167.5,226.5 156.5,226.5C 156.5,217.833 156.5,209.167 156.5,200.5 Z"/></g>
<g><path style="opacity:1" fill="#eae36e" d="M 202.5,200.5 C 213.5,200.5 224.5,200.5 235.5,200.5C 235.5,209.167 235.5,217.833 235.5,226.5C 224.5,226.5 213.5,226.5 202.5,226.5C 202.5,217.833 202.5,209.167 202.5,200.5 Z"/></g>
<g><path style="opacity:1" fill="#eee86e" d="M 281.5,200.5 C 281.5,208.833 281.5,217.167 281.5,225.5C 270.833,225.5 260.167,225.5 249.5,225.5C 249.5,217.167 249.5,208.833 249.5,200.5C 260.167,200.5 270.833,200.5 281.5,200.5 Z"/></g>
<g><path style="opacity:1" fill="#eee86e" d="M 295.5,200.5 C 306.167,200.5 316.833,200.5 327.5,200.5C 327.5,208.833 327.5,217.167 327.5,225.5C 316.833,225.5 306.167,225.5 295.5,225.5C 295.5,217.167 295.5,208.833 295.5,200.5 Z"/></g>
<g><path style="opacity:1" fill="#e9e26e" d="M 368.5,200.5 C 379.5,200.5 390.5,200.5 401.5,200.5C 401.5,209.167 401.5,217.833 401.5,226.5C 390.5,226.5 379.5,226.5 368.5,226.5C 368.5,217.833 368.5,209.167 368.5,200.5 Z"/></g>
<g><path style="opacity:1" fill="#84815d" d="M 96.5,200.5 C 85.8333,200.5 75.1667,200.5 64.5,200.5C 64.5,208.833 64.5,217.167 64.5,225.5C 75.1667,225.5 85.8333,225.5 96.5,225.5C 85.6794,226.495 74.6794,226.828 63.5,226.5C 63.5,217.5 63.5,208.5 63.5,199.5C 74.6794,199.172 85.6794,199.505 96.5,200.5 Z"/></g>
<g><path style="opacity:1" fill="#89855e" d="M 110.5,200.5 C 121.321,199.505 132.321,199.172 143.5,199.5C 143.5,208.5 143.5,217.5 143.5,226.5C 132.321,226.828 121.321,226.495 110.5,225.5C 121.167,225.5 131.833,225.5 142.5,225.5C 142.5,217.167 142.5,208.833 142.5,200.5C 131.833,200.5 121.167,200.5 110.5,200.5 Z"/></g>
<g><path style="opacity:1" fill="#86825e" d="M 281.5,200.5 C 270.833,200.5 260.167,200.5 249.5,200.5C 249.5,208.833 249.5,217.167 249.5,225.5C 260.167,225.5 270.833,225.5 281.5,225.5C 270.679,226.495 259.679,226.828 248.5,226.5C 248.5,217.5 248.5,208.5 248.5,199.5C 259.679,199.172 270.679,199.505 281.5,200.5 Z"/></g>
<g><path style="opacity:1" fill="#87845e" d="M 295.5,200.5 C 306.321,199.505 317.321,199.172 328.5,199.5C 328.5,208.5 328.5,217.5 328.5,226.5C 317.321,226.828 306.321,226.495 295.5,225.5C 306.167,225.5 316.833,225.5 327.5,225.5C 327.5,217.167 327.5,208.833 327.5,200.5C 316.833,200.5 306.167,200.5 295.5,200.5 Z"/></g>
<g><path style="opacity:1" fill="#83805d" d="M 447.5,200.5 C 448.493,208.984 448.826,217.651 448.5,226.5C 437.167,226.5 425.833,226.5 414.5,226.5C 414.5,217.5 414.5,208.5 414.5,199.5C 425.679,199.172 436.679,199.505 447.5,200.5 Z"/></g>
<g><path style="opacity:1" fill="#eee86e" d="M 447.5,200.5 C 447.5,208.833 447.5,217.167 447.5,225.5C 436.833,225.5 426.167,225.5 415.5,225.5C 415.5,217.167 415.5,208.833 415.5,200.5C 426.167,200.5 436.833,200.5 447.5,200.5 Z"/></g>
<g><path style="opacity:0.982" fill="#373851" d="M 34.5,270.5 C 183.223,270.005 331.889,270.505 480.5,272C 484.313,274.124 486.813,277.291 488,281.5C 488.667,290.5 488.667,299.5 488,308.5C 484.702,312.8 481.035,316.8 477,320.5C 476.333,326.833 476.333,333.167 477,339.5C 481.035,343.2 484.702,347.2 488,351.5C 488.667,370.167 488.667,388.833 488,407.5C 486.594,412.573 483.428,416.073 478.5,418C 472.843,418.499 467.176,418.666 461.5,418.5C 461.667,429.172 461.5,439.839 461,450.5C 460.208,452.587 459.041,454.421 457.5,456C 441.255,457.153 424.922,457.653 408.5,457.5C 392.078,457.653 375.745,457.153 359.5,456C 356.819,453.806 355.319,450.973 355,447.5C 354.5,437.839 354.334,428.172 354.5,418.5C 350.167,418.5 345.833,418.5 341.5,418.5C 341.667,429.505 341.5,440.505 341,451.5C 339.833,454 338,455.833 335.5,457C 242.5,457.667 149.5,457.667 56.5,457C 54,455.833 52.1667,454 51,451.5C 50.5002,440.505 50.3335,429.505 50.5,418.5C 44.8236,418.666 39.1569,418.499 33.5,418C 28.5723,416.073 25.4056,412.573 24,407.5C 23.3333,388.833 23.3333,370.167 24,351.5C 27.2981,347.2 30.9648,343.2 35,339.5C 35.6667,333.167 35.6667,326.833 35,320.5C 31.3333,316.833 27.6667,313.167 24,309.5C 23.3333,300.167 23.3333,290.833 24,281.5C 25.6844,275.984 29.1844,272.318 34.5,270.5 Z"/></g>
<g><path style="opacity:1" fill="#84d484" d="M 37.5,284.5 C 183.167,284.5 328.833,284.5 474.5,284.5C 474.666,291.175 474.5,297.842 474,304.5C 470.333,308.167 466.667,311.833 463,315.5C 462.333,324.833 462.333,334.167 463,343.5C 466.298,347.8 469.965,351.8 474,355.5C 474.824,372.074 474.658,388.574 473.5,405C 328.167,405.5 182.834,405.667 37.5,405.5C 37.3334,388.83 37.5001,372.163 38,355.5C 42.0352,351.8 45.7019,347.8 49,343.5C 49.6667,334.167 49.6667,324.833 49,315.5C 45.3333,311.833 41.6667,308.167 38,304.5C 37.5004,297.842 37.3337,291.175 37.5,284.5 Z"/></g>
<g><path style="opacity:1" fill="#383952" d="M 84.5,303.5 C 96.5046,303.333 108.505,303.5 120.5,304C 127.54,306.037 132.373,310.537 135,317.5C 135.667,334.833 135.667,352.167 135,369.5C 133.614,377.471 129.114,382.638 121.5,385C 109.167,385.667 96.8333,385.667 84.5,385C 77.9028,382.737 73.7361,378.237 72,371.5C 71.3333,353.5 71.3333,335.5 72,317.5C 74.2677,311.069 78.4344,306.403 84.5,303.5 Z"/></g>
<g><path style="opacity:1" fill="#373751" d="M 186.5,303.5 C 198.505,303.333 210.505,303.5 222.5,304C 228.113,305.282 232.28,308.449 235,313.5C 236.629,332.768 236.962,352.102 236,371.5C 234.273,378.228 230.106,382.728 223.5,385C 210.833,385.667 198.167,385.667 185.5,385C 179.939,382.438 176.106,378.272 174,372.5C 173.333,353.833 173.333,335.167 174,316.5C 176.353,310.315 180.52,305.982 186.5,303.5 Z"/></g>
<g><path style="opacity:1" fill="#373751" d="M 287.5,303.5 C 300.171,303.333 312.838,303.5 325.5,304C 331.667,306.167 335.833,310.333 338,316.5C 338.667,334.833 338.667,353.167 338,371.5C 336.264,378.237 332.097,382.737 325.5,385C 312.833,385.667 300.167,385.667 287.5,385C 281.912,382.414 278.079,378.247 276,372.5C 275.333,353.5 275.333,334.5 276,315.5C 278.691,310.311 282.524,306.311 287.5,303.5 Z"/></g>
<g><path style="opacity:1" fill="#393952" d="M 389.5,303.5 C 401.505,303.333 413.505,303.5 425.5,304C 432.54,306.037 437.373,310.537 440,317.5C 440.667,335.5 440.667,353.5 440,371.5C 438.043,378.611 433.543,383.111 426.5,385C 414.167,385.667 401.833,385.667 389.5,385C 383.182,382.557 379.015,378.057 377,371.5C 376.333,353.5 376.333,335.5 377,317.5C 379.636,311.369 383.803,306.703 389.5,303.5 Z"/></g>
<g><path style="opacity:1" fill="#737392" d="M 88.5,316.5 C 98.5056,316.334 108.506,316.5 118.5,317C 119.308,317.308 119.975,317.808 120.5,318.5C 121.828,336.03 121.828,353.53 120.5,371C 114.772,372.123 108.939,372.623 103,372.5C 97.8333,372.333 92.6667,372.167 87.5,372C 87,371.5 86.5,371 86,370.5C 84.3631,353.925 84.0297,337.258 85,320.5C 85.6897,318.65 86.8564,317.316 88.5,316.5 Z"/></g>
<g><path style="opacity:1" fill="#737392" d="M 189.5,316.5 C 199.839,316.334 210.172,316.5 220.5,317C 221.333,317.833 222.167,318.667 223,319.5C 223.667,336.167 223.667,352.833 223,369.5C 222.167,370.333 221.333,371.167 220.5,372C 210.167,372.667 199.833,372.667 189.5,372C 188.667,371.167 187.833,370.333 187,369.5C 186.333,352.833 186.333,336.167 187,319.5C 188.045,318.627 188.878,317.627 189.5,316.5 Z"/></g>
<g><path style="opacity:1" fill="#737392" d="M 291.5,316.5 C 301.506,316.334 311.506,316.5 321.5,317C 322.931,317.465 324.097,318.299 325,319.5C 325.667,336.167 325.667,352.833 325,369.5C 324.167,370.333 323.333,371.167 322.5,372C 312.167,372.667 301.833,372.667 291.5,372C 290.692,371.692 290.025,371.192 289.5,370.5C 288.348,353.544 288.181,336.544 289,319.5C 290.045,318.627 290.878,317.627 291.5,316.5 Z"/></g>
<g><path style="opacity:1" fill="#737392" d="M 393.5,316.5 C 403.506,316.334 413.506,316.5 423.5,317C 424.416,317.374 425.25,317.874 426,318.5C 426.667,335.833 426.667,353.167 426,370.5C 425.5,371 425,371.5 424.5,372C 413.833,372.667 403.167,372.667 392.5,372C 392,371.5 391.5,371 391,370.5C 390.333,353.5 390.333,336.5 391,319.5C 391.698,318.309 392.531,317.309 393.5,316.5 Z"/></g>
<g><path style="opacity:1" fill="#ebe46e" d="M 156.5,418.5 C 167.5,418.5 178.5,418.5 189.5,418.5C 189.5,427.167 189.5,435.833 189.5,444.5C 178.5,444.5 167.5,444.5 156.5,444.5C 156.5,435.833 156.5,427.167 156.5,418.5 Z"/></g>
<g><path style="opacity:1" fill="#ebe46e" d="M 202.5,418.5 C 213.5,418.5 224.5,418.5 235.5,418.5C 235.5,427.167 235.5,435.833 235.5,444.5C 224.5,444.5 213.5,444.5 202.5,444.5C 202.5,435.833 202.5,427.167 202.5,418.5 Z"/></g>
<g><path style="opacity:1" fill="#eee86e" d="M 369.5,418.5 C 380.167,418.5 390.833,418.5 401.5,418.5C 401.5,426.833 401.5,435.167 401.5,443.5C 390.833,443.5 380.167,443.5 369.5,443.5C 369.5,435.167 369.5,426.833 369.5,418.5 Z"/></g>
<g><path style="opacity:1" fill="#989561" d="M 64.5,418.5 C 64.5,426.833 64.5,435.167 64.5,443.5C 75.1667,443.5 85.8333,443.5 96.5,443.5C 96.5,435.167 96.5,426.833 96.5,418.5C 97.493,426.984 97.8264,435.651 97.5,444.5C 86.1667,444.5 74.8333,444.5 63.5,444.5C 63.1736,435.651 63.507,426.984 64.5,418.5 Z"/></g>
<g><path style="opacity:1" fill="#eee86e" d="M 64.5,418.5 C 75.1667,418.5 85.8333,418.5 96.5,418.5C 96.5,426.833 96.5,435.167 96.5,443.5C 85.8333,443.5 75.1667,443.5 64.5,443.5C 64.5,435.167 64.5,426.833 64.5,418.5 Z"/></g>
<g><path style="opacity:1" fill="#989461" d="M 110.5,418.5 C 110.5,426.833 110.5,435.167 110.5,443.5C 121.167,443.5 131.833,443.5 142.5,443.5C 142.5,435.167 142.5,426.833 142.5,418.5C 143.493,426.984 143.826,435.651 143.5,444.5C 132.167,444.5 120.833,444.5 109.5,444.5C 109.174,435.651 109.507,426.984 110.5,418.5 Z"/></g>
<g><path style="opacity:1" fill="#eee86e" d="M 110.5,418.5 C 121.167,418.5 131.833,418.5 142.5,418.5C 142.5,426.833 142.5,435.167 142.5,443.5C 131.833,443.5 121.167,443.5 110.5,443.5C 110.5,435.167 110.5,426.833 110.5,418.5 Z"/></g>
<g><path style="opacity:1" fill="#989561" d="M 249.5,418.5 C 249.5,426.833 249.5,435.167 249.5,443.5C 260.167,443.5 270.833,443.5 281.5,443.5C 281.5,435.167 281.5,426.833 281.5,418.5C 282.493,426.984 282.826,435.651 282.5,444.5C 271.167,444.5 259.833,444.5 248.5,444.5C 248.174,435.651 248.507,426.984 249.5,418.5 Z"/></g>
<g><path style="opacity:1" fill="#eee86e" d="M 249.5,418.5 C 260.167,418.5 270.833,418.5 281.5,418.5C 281.5,426.833 281.5,435.167 281.5,443.5C 270.833,443.5 260.167,443.5 249.5,443.5C 249.5,435.167 249.5,426.833 249.5,418.5 Z"/></g>
<g><path style="opacity:1" fill="#989461" d="M 295.5,418.5 C 295.5,426.833 295.5,435.167 295.5,443.5C 306.167,443.5 316.833,443.5 327.5,443.5C 327.5,435.167 327.5,426.833 327.5,418.5C 328.493,426.984 328.826,435.651 328.5,444.5C 317.167,444.5 305.833,444.5 294.5,444.5C 294.174,435.651 294.507,426.984 295.5,418.5 Z"/></g>
<g><path style="opacity:1" fill="#eee86e" d="M 295.5,418.5 C 306.167,418.5 316.833,418.5 327.5,418.5C 327.5,426.833 327.5,435.167 327.5,443.5C 316.833,443.5 306.167,443.5 295.5,443.5C 295.5,435.167 295.5,426.833 295.5,418.5 Z"/></g>
<g><path style="opacity:1" fill="#aba664" d="M 369.5,418.5 C 369.5,426.833 369.5,435.167 369.5,443.5C 380.167,443.5 390.833,443.5 401.5,443.5C 390.679,444.495 379.679,444.828 368.5,444.5C 368.174,435.651 368.507,426.984 369.5,418.5 Z"/></g>
<g><path style="opacity:1" fill="#989561" d="M 415.5,418.5 C 415.5,426.833 415.5,435.167 415.5,443.5C 426.167,443.5 436.833,443.5 447.5,443.5C 447.5,435.167 447.5,426.833 447.5,418.5C 448.493,426.984 448.826,435.651 448.5,444.5C 437.167,444.5 425.833,444.5 414.5,444.5C 414.174,435.651 414.507,426.984 415.5,418.5 Z"/></g>
<g><path style="opacity:1" fill="#eee86e" d="M 415.5,418.5 C 426.167,418.5 436.833,418.5 447.5,418.5C 447.5,426.833 447.5,435.167 447.5,443.5C 436.833,443.5 426.167,443.5 415.5,443.5C 415.5,435.167 415.5,426.833 415.5,418.5 Z"/></g>
</svg>
