<?xml version="1.0" encoding="UTF-8"?>
<!DOCTYPE svg PUBLIC "-//W3C//DTD SVG 1.1//EN" "http://www.w3.org/Graphics/SVG/1.1/DTD/svg11.dtd">
<svg xmlns="http://www.w3.org/2000/svg" version="1.1" width="512px" height="512px" style="shape-rendering:geometricPrecision; text-rendering:geometricPrecision; image-rendering:optimizeQuality; fill-rule:evenodd; clip-rule:evenodd" xmlns:xlink="http://www.w3.org/1999/xlink">
<g><path style="opacity:0.989" fill="#373751" d="M 116.5,17.5 C 210.834,17.3333 305.167,17.5 399.5,18C 406.667,19.8333 411.167,24.3333 413,31.5C 413.667,184.167 413.667,336.833 413,489.5C 412.626,490.416 412.126,491.25 411.5,492C 309.914,493.662 208.248,493.995 106.5,493C 105.667,492.167 104.833,491.333 104,490.5C 103.333,337.167 103.333,183.833 104,30.5C 106.327,24.3406 110.494,20.0073 116.5,17.5 Z"/></g>
<g><path style="opacity:1" fill="#b8b8ca" d="M 399.5,422.5 C 305.5,422.5 211.5,422.5 117.5,422.5C 117.5,293.167 117.5,163.833 117.5,34.5C 117.953,33.5416 118.619,32.7083 119.5,32C 212.167,31.3333 304.833,31.3333 397.5,32C 398,32.5 398.5,33 399,33.5C 399.5,163.166 399.667,292.833 399.5,422.5 Z"/></g>
<g><path style="opacity:1" fill="#3a3a54" d="M 138.5,39.5 C 218.167,39.3333 297.834,39.5 377.5,40C 382.876,41.5557 386.376,45.0557 388,50.5C 388.667,70.5 388.667,90.5 388,110.5C 386.5,117.333 382.333,121.5 375.5,123C 297.167,123.667 218.833,123.667 140.5,123C 135.09,121.257 131.256,117.757 129,112.5C 128.333,91.5 128.333,70.5 129,49.5C 131.022,44.98 134.189,41.6467 138.5,39.5 Z"/></g>
<g><path style="opacity:1" fill="#ececf3" d="M 142.5,52.5 C 219.833,52.5 297.167,52.5 374.5,52.5C 374.5,71.5 374.5,90.5 374.5,109.5C 296.833,109.5 219.167,109.5 141.5,109.5C 141.18,90.4238 141.513,71.4238 142.5,52.5 Z"/></g>
<g><path style="opacity:1" fill="#373751" d="M 309.5,74.5 C 324.17,74.3334 338.837,74.5001 353.5,75C 357.292,77.0527 358.458,80.2194 357,84.5C 356.167,85.3333 355.333,86.1667 354.5,87C 339.167,87.6667 323.833,87.6667 308.5,87C 304.4,82.445 304.733,78.2783 309.5,74.5 Z"/></g>
<g><path style="opacity:1" fill="#3c3c55" d="M 163.5,74.5 C 171.857,74.7167 174.19,78.55 170.5,86C 162.809,89.3058 159.309,86.8058 160,78.5C 160.69,76.6498 161.856,75.3164 163.5,74.5 Z"/></g>
<g><path style="opacity:1" fill="#3c3c55" d="M 200.5,74.5 C 208.857,74.7167 211.19,78.55 207.5,86C 199.809,89.3058 196.309,86.8058 197,78.5C 197.69,76.6498 198.856,75.3164 200.5,74.5 Z"/></g>
<g><path style="opacity:1" fill="#3b3b55" d="M 237.5,74.5 C 245.604,75.0688 247.937,78.9021 244.5,86C 236.758,89.2479 233.258,86.7479 234,78.5C 234.69,76.6498 235.856,75.3164 237.5,74.5 Z"/></g>
<g><path style="opacity:1" fill="#3b3b55" d="M 274.5,74.5 C 282.604,75.0688 284.937,78.9021 281.5,86C 273.758,89.2479 270.258,86.7479 271,78.5C 271.69,76.6498 272.856,75.3164 274.5,74.5 Z"/></g>
<g><path style="opacity:1" fill="#3a3a54" d="M 139.5,135.5 C 218.167,135.333 296.834,135.5 375.5,136C 381.925,137.427 386.092,141.26 388,147.5C 388.667,167.5 388.667,187.5 388,207.5C 386.657,213.384 383.157,217.217 377.5,219C 297.833,219.667 218.167,219.667 138.5,219C 133.124,216.96 129.957,213.127 129,207.5C 128.333,187.167 128.333,166.833 129,146.5C 131.357,141.645 134.857,137.979 139.5,135.5 Z"/></g>
<g><path style="opacity:1" fill="#ebebf2" d="M 141.5,149.5 C 219.167,149.5 296.833,149.5 374.5,149.5C 374.5,168.5 374.5,187.5 374.5,206.5C 297.166,206.667 219.833,206.5 142.5,206C 141.507,187.243 141.174,168.41 141.5,149.5 Z"/></g>
<g><path style="opacity:1" fill="#3d3d57" d="M 162.5,171.5 C 169.827,170.329 172.994,173.329 172,180.5C 167.951,185.818 163.951,185.818 160,180.5C 158.927,176.9 159.76,173.9 162.5,171.5 Z"/></g>
<g><path style="opacity:1" fill="#3c3c56" d="M 199.5,171.5 C 210.21,171.696 212.21,175.862 205.5,184C 198.215,184.962 195.382,181.795 197,174.5C 198.045,173.627 198.878,172.627 199.5,171.5 Z"/></g>
<g><path style="opacity:1" fill="#3b3b55" d="M 236.5,171.5 C 243.173,170.382 246.34,173.049 246,179.5C 242.421,185.753 238.421,186.086 234,180.5C 232.927,176.9 233.76,173.9 236.5,171.5 Z"/></g>
<g><path style="opacity:1" fill="#3c3b55" d="M 273.5,171.5 C 280.173,170.382 283.34,173.049 283,179.5C 279.421,185.753 275.421,186.086 271,180.5C 269.927,176.9 270.76,173.9 273.5,171.5 Z"/></g>
<g><path style="opacity:1" fill="#393852" d="M 308.5,171.5 C 323.837,171.333 339.17,171.5 354.5,172C 359.915,176.374 359.582,180.374 353.5,184C 338.833,184.667 324.167,184.667 309.5,184C 304.624,180.231 304.29,176.064 308.5,171.5 Z"/></g>
<g><path style="opacity:1" fill="#383852" d="M 139.5,232.5 C 218.501,232.333 297.501,232.5 376.5,233C 381.91,234.743 385.744,238.243 388,243.5C 388.667,263.5 388.667,283.5 388,303.5C 386.464,310.369 382.298,314.536 375.5,316C 296.833,316.667 218.167,316.667 139.5,316C 133.902,314.069 130.402,310.236 129,304.5C 128.333,284.167 128.333,263.833 129,243.5C 130.684,237.984 134.184,234.318 139.5,232.5 Z"/></g>
<g><path style="opacity:1" fill="#e9e9f1" d="M 142.5,245.5 C 219.833,245.5 297.167,245.5 374.5,245.5C 374.5,264.833 374.5,284.167 374.5,303.5C 297.166,303.667 219.833,303.5 142.5,303C 141.173,283.833 141.173,264.667 142.5,245.5 Z"/></g>
<g><path style="opacity:1" fill="#3c3c55" d="M 163.5,267.5 C 172.561,268.377 174.561,272.544 169.5,280C 162.17,281.666 159.003,278.833 160,271.5C 161.376,270.295 162.542,268.962 163.5,267.5 Z"/></g>
<g><path style="opacity:1" fill="#3c3c55" d="M 200.5,267.5 C 209.561,268.377 211.561,272.544 206.5,280C 199.17,281.666 196.003,278.833 197,271.5C 198.376,270.295 199.542,268.962 200.5,267.5 Z"/></g>
<g><path style="opacity:1" fill="#3d3d56" d="M 237.5,267.5 C 246.561,268.377 248.561,272.544 243.5,280C 236.17,281.666 233.003,278.833 234,271.5C 235.102,270.051 236.269,268.718 237.5,267.5 Z"/></g>
<g><path style="opacity:1" fill="#3c3c56" d="M 274.5,267.5 C 283.627,268.428 285.627,272.595 280.5,280C 273.17,281.666 270.003,278.833 271,271.5C 272.102,270.051 273.269,268.718 274.5,267.5 Z"/></g>
<g><path style="opacity:1" fill="#3f3f58" d="M 309.5,267.5 C 324.17,267.333 338.837,267.5 353.5,268C 360.167,272.333 360.167,276.667 353.5,281C 338.833,281.667 324.167,281.667 309.5,281C 304.221,276.503 304.221,272.003 309.5,267.5 Z"/></g>
<g><path style="opacity:1" fill="#3a3a54" d="M 137.5,329.5 C 217.501,329.333 297.501,329.5 377.5,330C 383,331.5 386.5,335 388,340.5C 388.667,360.5 388.667,380.5 388,400.5C 386.573,406.925 382.74,411.092 376.5,413C 297.833,413.667 219.167,413.667 140.5,413C 134.224,411.058 130.39,406.891 129,400.5C 128.333,380.167 128.333,359.833 129,339.5C 130.978,335.362 133.811,332.029 137.5,329.5 Z"/></g>
<g><path style="opacity:1" fill="#ececf3" d="M 142.5,342.5 C 219.833,342.5 297.167,342.5 374.5,342.5C 374.5,361.5 374.5,380.5 374.5,399.5C 296.833,399.5 219.167,399.5 141.5,399.5C 141.18,380.424 141.513,361.424 142.5,342.5 Z"/></g>
<g><path style="opacity:1" fill="#3b3b55" d="M 163.5,364.5 C 171.845,364.691 174.178,368.524 170.5,376C 162.95,378.984 159.45,376.484 160,368.5C 160.69,366.65 161.856,365.316 163.5,364.5 Z"/></g>
<g><path style="opacity:1" fill="#3c3c55" d="M 200.5,364.5 C 208.845,364.691 211.178,368.524 207.5,376C 199.809,379.306 196.309,376.806 197,368.5C 197.69,366.65 198.856,365.316 200.5,364.5 Z"/></g>
<g><path style="opacity:1" fill="#3d3d56" d="M 237.5,364.5 C 245.845,364.691 248.178,368.524 244.5,376C 236.3,379.14 232.8,376.306 234,367.5C 235.145,366.364 236.312,365.364 237.5,364.5 Z"/></g>
<g><path style="opacity:1" fill="#3e3d57" d="M 273.5,364.5 C 282.523,364.062 285.189,367.895 281.5,376C 273.246,379.081 269.746,376.248 271,367.5C 272.045,366.627 272.878,365.627 273.5,364.5 Z"/></g>
<g><path style="opacity:1" fill="#373751" d="M 309.5,364.5 C 324.504,364.333 339.504,364.5 354.5,365C 358.5,369 358.5,373 354.5,377C 339.167,377.667 323.833,377.667 308.5,377C 304.212,372.282 304.545,368.116 309.5,364.5 Z"/></g>
<g><path style="opacity:1" fill="#6f6f86" d="M 117.5,34.5 C 117.5,163.833 117.5,293.167 117.5,422.5C 211.5,422.5 305.5,422.5 399.5,422.5C 305.335,423.499 211.001,423.833 116.5,423.5C 116.167,293.666 116.5,163.999 117.5,34.5 Z"/></g>
</svg>
