<?xml version="1.0" encoding="UTF-8"?>
<!DOCTYPE svg PUBLIC "-//W3C//DTD SVG 1.1//EN" "http://www.w3.org/Graphics/SVG/1.1/DTD/svg11.dtd">
<svg xmlns="http://www.w3.org/2000/svg" version="1.1" width="512px" height="512px" style="shape-rendering:geometricPrecision; text-rendering:geometricPrecision; image-rendering:optimizeQuality; fill-rule:evenodd; clip-rule:evenodd" xmlns:xlink="http://www.w3.org/1999/xlink">
<g><path style="opacity:0.974" fill="#373751" d="M 88.5,20.5 C 200.834,20.3333 313.167,20.5 425.5,21C 434.347,23.5134 439.181,29.3468 440,38.5C 440.667,182.5 440.667,326.5 440,470.5C 439.219,480.906 433.719,487.073 423.5,489C 312.5,489.667 201.5,489.667 90.5,489C 83.1152,487.561 77.9486,483.394 75,476.5C 74.3333,328.833 74.3333,181.167 75,33.5C 77.4424,26.8884 81.9424,22.555 88.5,20.5 Z"/></g>
<g><path style="opacity:1" fill="#b8b8cb" d="M 90.5,34.5 C 104.167,34.5 117.833,34.5 131.5,34.5C 131.333,51.5033 131.5,68.5033 132,85.5C 133.717,90.5486 136.884,94.382 141.5,97C 179.608,98.1579 217.775,98.6579 256,98.5C 293.167,98.3333 330.333,98.1667 367.5,98C 374.667,96.1667 379.167,91.6667 381,84.5C 381.5,67.8367 381.667,51.17 381.5,34.5C 395.504,34.3334 409.504,34.5001 423.5,35C 424.333,35.8333 425.167,36.6667 426,37.5C 426.667,182.167 426.667,326.833 426,471.5C 425.5,473.333 424.333,474.5 422.5,475C 312.167,475.667 201.833,475.667 91.5,475C 89.6667,474.5 88.5,473.333 88,471.5C 87.3333,326.833 87.3333,182.167 88,37.5C 89.045,36.6266 89.8783,35.6266 90.5,34.5 Z"/></g>
<g><path style="opacity:1" fill="#383852" d="M 107.5,56.5 C 117.267,56.0726 119.6,59.9059 114.5,68C 104.415,68.7604 102.082,64.9271 107.5,56.5 Z"/></g>
<g><path style="opacity:1" fill="#3b3b55" d="M 401.5,56.5 C 411.267,56.0726 413.6,59.9059 408.5,68C 405.055,70.2225 402.055,69.7225 399.5,66.5C 397.81,62.6309 398.476,59.2975 401.5,56.5 Z"/></g>
<g><path style="opacity:1" fill="#eee86e" d="M 168.5,58.5 C 172.5,58.5 176.5,58.5 180.5,58.5C 180.5,67.5 180.5,76.5 180.5,85.5C 176.5,85.5 172.5,85.5 168.5,85.5C 168.5,76.5 168.5,67.5 168.5,58.5 Z"/></g>
<g><path style="opacity:1" fill="#a9a463" d="M 168.5,58.5 C 172.634,57.5151 176.968,57.1818 181.5,57.5C 181.827,67.015 181.494,76.3483 180.5,85.5C 180.5,76.5 180.5,67.5 180.5,58.5C 176.5,58.5 172.5,58.5 168.5,58.5 Z"/></g>
<g><path style="opacity:1" fill="#eee86e" d="M 194.5,58.5 C 198.5,58.5 202.5,58.5 206.5,58.5C 206.5,67.5 206.5,76.5 206.5,85.5C 202.5,85.5 198.5,85.5 194.5,85.5C 194.5,76.5 194.5,67.5 194.5,58.5 Z"/></g>
<g><path style="opacity:1" fill="#b7b165" d="M 194.5,58.5 C 198.634,57.5151 202.968,57.1818 207.5,57.5C 207.827,67.015 207.494,76.3483 206.5,85.5C 206.5,76.5 206.5,67.5 206.5,58.5C 202.5,58.5 198.5,58.5 194.5,58.5 Z"/></g>
<g><path style="opacity:1" fill="#e8e16e" d="M 220.5,57.5 C 224.833,57.5 229.167,57.5 233.5,57.5C 233.5,66.8333 233.5,76.1667 233.5,85.5C 229.167,85.5 224.833,85.5 220.5,85.5C 220.5,76.1667 220.5,66.8333 220.5,57.5 Z"/></g>
<g><path style="opacity:1" fill="#bbb666" d="M 259.5,58.5 C 255.5,58.5 251.5,58.5 247.5,58.5C 247.5,67.5 247.5,76.5 247.5,85.5C 246.506,76.3483 246.173,67.015 246.5,57.5C 251.032,57.1818 255.366,57.5151 259.5,58.5 Z"/></g>
<g><path style="opacity:1" fill="#eee76f" d="M 259.5,58.5 C 259.5,67.5 259.5,76.5 259.5,85.5C 255.5,85.5 251.5,85.5 247.5,85.5C 247.5,76.5 247.5,67.5 247.5,58.5C 251.5,58.5 255.5,58.5 259.5,58.5 Z"/></g>
<g><path style="opacity:1" fill="#979361" d="M 313.5,58.5 C 309.5,58.5 305.5,58.5 301.5,58.5C 301.5,67.5 301.5,76.5 301.5,85.5C 300.506,76.3483 300.173,67.015 300.5,57.5C 305.032,57.1818 309.366,57.5151 313.5,58.5 Z"/></g>
<g><path style="opacity:1" fill="#eee86e" d="M 313.5,58.5 C 313.5,67.5 313.5,76.5 313.5,85.5C 309.5,85.5 305.5,85.5 301.5,85.5C 301.5,76.5 301.5,67.5 301.5,58.5C 305.5,58.5 309.5,58.5 313.5,58.5 Z"/></g>
<g><path style="opacity:1" fill="#e4dd6d" d="M 327.5,57.5 C 331.5,57.5 335.5,57.5 339.5,57.5C 339.5,66.8333 339.5,76.1667 339.5,85.5C 335.167,85.5 330.833,85.5 326.5,85.5C 326.195,76.0833 326.528,66.75 327.5,57.5 Z"/></g>
<g><path style="opacity:1" fill="#393953" d="M 150.5,136.5 C 220.501,136.333 290.501,136.5 360.5,137C 369.14,138.309 374.64,143.142 377,151.5C 377.667,237.833 377.667,324.167 377,410.5C 374.833,418 370,422.833 362.5,425C 291.5,425.667 220.5,425.667 149.5,425C 143,422.5 138.5,418 136,411.5C 135.333,324.5 135.333,237.5 136,150.5C 138.774,143.557 143.607,138.89 150.5,136.5 Z"/></g>
<g><path style="opacity:1" fill="#ececf3" d="M 150.5,364.5 C 149.501,294.335 149.167,224.002 149.5,153.5C 149.953,152.542 150.619,151.708 151.5,151C 221.5,150.333 291.5,150.333 361.5,151C 362,151.5 362.5,152 363,152.5C 361.121,185.014 353.121,216.014 339,245.5C 324.566,273.595 302.066,291.762 271.5,300C 235.878,301.824 204.544,314.158 177.5,337C 167.601,345.398 158.601,354.565 150.5,364.5 Z"/></g>
<g><path style="opacity:1" fill="#bcbcc8" d="M 149.5,153.5 C 149.167,224.002 149.501,294.335 150.5,364.5C 150.217,365.289 149.717,365.956 149,366.5C 148.168,295.332 148.335,224.332 149.5,153.5 Z"/></g>
<g><path style="opacity:1" fill="#383852" d="M 173.5,181.5 C 205.502,181.333 237.502,181.5 269.5,182C 272.864,185.026 273.364,188.526 271,192.5C 269.933,193.191 268.766,193.691 267.5,194C 236.5,194.667 205.5,194.667 174.5,194C 169.511,190.219 169.178,186.052 173.5,181.5 Z"/></g>
<g><path style="opacity:1" fill="#5b8069" d="M 363.5,408.5 C 363.832,346.331 363.499,284.331 362.5,222.5C 362.783,221.711 363.283,221.044 364,220.5C 364.832,283.335 364.665,346.001 363.5,408.5 Z"/></g>
<g><path style="opacity:1" fill="#84d584" d="M 362.5,222.5 C 363.499,284.331 363.832,346.331 363.5,408.5C 362.71,409.794 361.71,410.961 360.5,412C 291.167,412.667 221.833,412.667 152.5,412C 150.667,411.5 149.5,410.333 149,408.5C 148.072,401.06 148.406,393.726 150,386.5C 165.63,364.535 184.796,346.369 207.5,332C 225.023,321.534 244.023,315.867 264.5,315C 307.734,307.095 337.901,282.928 355,242.5C 357.802,235.926 360.302,229.259 362.5,222.5 Z"/></g>
<g><path style="opacity:1" fill="#373751" d="M 174.5,225.5 C 197.169,225.333 219.836,225.5 242.5,226C 246.629,228.631 247.462,232.131 245,236.5C 244.25,237.126 243.416,237.626 242.5,238C 219.833,238.667 197.167,238.667 174.5,238C 169.217,233.886 169.217,229.719 174.5,225.5 Z"/></g>
<g><path style="opacity:1" fill="#3a3a54" d="M 108.5,446.5 C 117.561,447.377 119.561,451.544 114.5,459C 107.17,460.666 104.003,457.833 105,450.5C 106.376,449.295 107.542,447.962 108.5,446.5 Z"/></g>
<g><path style="opacity:1" fill="#3b3b55" d="M 402.5,446.5 C 411.561,447.377 413.561,451.544 408.5,459C 401.17,460.666 398.003,457.833 399,450.5C 400.102,449.051 401.269,447.718 402.5,446.5 Z"/></g>
</svg>
