<?xml version="1.0" encoding="UTF-8"?>
<!DOCTYPE svg PUBLIC "-//W3C//DTD SVG 1.1//EN" "http://www.w3.org/Graphics/SVG/1.1/DTD/svg11.dtd">
<svg xmlns="http://www.w3.org/2000/svg" version="1.1" width="512px" height="512px" style="shape-rendering:geometricPrecision; text-rendering:geometricPrecision; image-rendering:optimizeQuality; fill-rule:evenodd; clip-rule:evenodd" xmlns:xlink="http://www.w3.org/1999/xlink">
<g><path style="opacity:0.986" fill="#383852" d="M 38.5,20.5 C 55.8365,20.3334 73.1699,20.5001 90.5,21C 96,22.5 99.5,26 101,31.5C 101.5,58.8313 101.667,86.1646 101.5,113.5C 217.5,113.333 333.5,113.5 449.5,114C 452.754,114.25 455.754,115.25 458.5,117C 469,129.5 479.5,142 490,154.5C 491.75,157.246 492.75,160.246 493,163.5C 493.667,224.167 493.667,284.833 493,345.5C 492.434,349.965 490.767,353.965 488,357.5C 478.178,369.653 468.012,381.486 457.5,393C 455.913,393.862 454.246,394.529 452.5,395C 439.838,395.5 427.171,395.667 414.5,395.5C 414.666,405.839 414.5,416.172 414,426.5C 412.833,430.333 410.333,432.833 406.5,434C 314.5,434.667 222.5,434.667 130.5,434C 126.667,432.833 124.167,430.333 123,426.5C 122.5,416.172 122.334,405.839 122.5,395.5C 115.5,395.5 108.5,395.5 101.5,395.5C 101.667,423.169 101.5,450.835 101,478.5C 99.1667,483 96,486.167 91.5,488C 82.5,488.667 73.5,488.667 64.5,488C 59.7938,486.895 56.6271,484.062 55,479.5C 54.5,342.5 54.3333,205.5 54.5,68.5C 46.7944,69.3354 39.4611,68.1688 32.5,65C 30.3834,63.2691 28.8834,61.1024 28,58.5C 27.3333,49.1667 27.3333,39.8333 28,30.5C 30.1059,25.5573 33.6059,22.224 38.5,20.5 Z"/></g>
<g><path style="opacity:1" fill="#efeff5" d="M 40.5,34.5 C 56.1667,34.5 71.8333,34.5 87.5,34.5C 88.5275,181.495 88.5275,328.495 87.5,475.5C 81.4908,475.666 75.4908,475.499 69.5,475C 68.6929,469.917 68.1929,464.75 68,459.5C 67.6667,326.5 67.3333,193.5 67,60.5C 65.5202,57.3374 63.0202,55.504 59.5,55C 53.5,54.6667 47.5,54.3333 41.5,54C 40.5223,47.5898 40.189,41.0898 40.5,34.5 Z"/></g>
<g><path style="opacity:1" fill="#b9b9cb" d="M 101.5,127.5 C 108.833,127.5 116.167,127.5 123.5,127.5C 120.661,139.861 124.661,149.027 135.5,155C 150.833,155.667 166.167,155.667 181.5,155C 187.87,153.564 192.037,149.731 194,143.5C 195.271,138.246 195.771,132.913 195.5,127.5C 280.167,127.333 364.834,127.5 449.5,128C 459.691,139.556 469.524,151.39 479,163.5C 479.667,224.167 479.667,284.833 479,345.5C 469.861,357.967 460.028,369.8 449.5,381C 364.834,381.5 280.167,381.667 195.5,381.5C 197.811,368.62 193.144,359.453 181.5,354C 166.5,353.333 151.5,353.333 136.5,354C 124.856,359.453 120.189,368.62 122.5,381.5C 115.5,381.5 108.5,381.5 101.5,381.5C 101.5,367.833 101.5,354.167 101.5,340.5C 138.168,340.667 174.835,340.5 211.5,340C 221.345,337.153 225.179,330.653 223,320.5C 201.091,276.164 201.091,231.831 223,187.5C 224.879,177.754 221.045,171.587 211.5,169C 174.835,168.5 138.168,168.333 101.5,168.5C 101.5,154.833 101.5,141.167 101.5,127.5 Z"/></g>
<g><path style="opacity:1" fill="#737392" d="M 136.5,127.5 C 151.5,127.5 166.5,127.5 181.5,127.5C 181.8,132.099 181.467,136.599 180.5,141C 173.434,142.132 166.267,142.632 159,142.5C 152.12,142.482 145.286,142.149 138.5,141.5C 137.808,140.975 137.308,140.308 137,139.5C 136.501,135.514 136.334,131.514 136.5,127.5 Z"/></g>
<g><path style="opacity:1" fill="#383851" d="M 334.5,143.5 C 391.142,140.548 430.642,164.882 453,216.5C 467.355,262.087 457.855,301.92 424.5,336C 388.945,365.982 349.278,372.982 305.5,357C 253.42,330.679 231.587,288.512 240,230.5C 253.829,182.166 285.329,153.166 334.5,143.5 Z"/></g>
<g><path style="opacity:1" fill="#ebebf2" d="M 337.5,156.5 C 354.407,155.82 370.74,158.486 386.5,164.5C 386.1,184.04 380.433,202.04 369.5,218.5C 368.833,218.833 368.167,219.167 367.5,219.5C 357.168,215.381 346.502,214.381 335.5,216.5C 335.666,206.494 335.5,196.494 335,186.5C 333.357,176.833 331.857,167.167 330.5,157.5C 333.059,157.802 335.393,157.468 337.5,156.5 Z"/></g>
<g><path style="opacity:1" fill="#737392" d="M 101.5,182.5 C 137.839,182.167 174.173,182.5 210.5,183.5C 193.55,218.326 189.383,254.659 198,292.5C 201.485,304.127 205.652,315.46 210.5,326.5C 174.167,326.5 137.833,326.5 101.5,326.5C 101.5,278.5 101.5,230.5 101.5,182.5 Z"/></g>
<g><path style="opacity:1" fill="#ebebf2" d="M 258.5,215.5 C 278.944,216.926 297.61,223.426 314.5,235C 309.008,245.216 308.008,255.883 311.5,267C 291.632,266.987 271.965,268.82 252.5,272.5C 251.445,260.855 251.279,249.189 252,237.5C 253.467,229.935 255.634,222.602 258.5,215.5 Z"/></g>
<g><path style="opacity:1" fill="#737392" d="M 341.5,228.5 C 364.509,227.01 375.342,237.676 374,260.5C 368.898,276.229 358.064,282.729 341.5,280C 327.212,274.256 321.046,263.756 323,248.5C 325.783,238.529 331.95,231.863 341.5,228.5 Z"/></g>
<g><path style="opacity:1" fill="#eaeaf1" d="M 441.5,235.5 C 442.822,235.33 443.989,235.663 445,236.5C 447.925,255.769 445.758,274.436 438.5,292.5C 418.541,292.236 400.374,286.236 384,274.5C 384.555,270.817 385.555,267.15 387,263.5C 387.726,256.131 387.559,248.798 386.5,241.5C 405.247,241.889 423.581,239.889 441.5,235.5 Z"/></g>
<g><path style="opacity:1" fill="#eaeaf1" d="M 328.5,289.5 C 339.165,293.58 350.165,294.58 361.5,292.5C 361.11,312.097 363.11,331.431 367.5,350.5C 347.856,354.568 328.856,352.568 310.5,344.5C 310.87,324.389 316.87,306.056 328.5,289.5 Z"/></g>
<g><path style="opacity:1" fill="#727291" d="M 139.5,366.5 C 152.504,366.333 165.504,366.5 178.5,367C 179.333,367.833 180.167,368.667 181,369.5C 181.499,373.486 181.666,377.486 181.5,381.5C 166.5,381.5 151.5,381.5 136.5,381.5C 136.334,377.486 136.501,373.486 137,369.5C 138.045,368.627 138.878,367.627 139.5,366.5 Z"/></g>
<g><path style="opacity:1" fill="#969260" d="M 261.5,395.5 C 250.833,395.5 240.167,395.5 229.5,395.5C 229.5,403.833 229.5,412.167 229.5,420.5C 228.507,412.016 228.174,403.349 228.5,394.5C 239.679,394.172 250.679,394.505 261.5,395.5 Z"/></g>
<g><path style="opacity:1" fill="#8e8a5f" d="M 275.5,395.5 C 286.321,394.505 297.321,394.172 308.5,394.5C 308.826,403.349 308.493,412.016 307.5,420.5C 307.5,412.167 307.5,403.833 307.5,395.5C 296.833,395.5 286.167,395.5 275.5,395.5 Z"/></g>
<g><path style="opacity:1" fill="#eae36e" d="M 136.5,394.5 C 147.5,394.5 158.5,394.5 169.5,394.5C 169.5,403.167 169.5,411.833 169.5,420.5C 158.5,420.5 147.5,420.5 136.5,420.5C 136.5,411.833 136.5,403.167 136.5,394.5 Z"/></g>
<g><path style="opacity:1" fill="#eae36e" d="M 182.5,394.5 C 193.5,394.5 204.5,394.5 215.5,394.5C 215.5,403.167 215.5,411.833 215.5,420.5C 204.5,420.5 193.5,420.5 182.5,420.5C 182.5,411.833 182.5,403.167 182.5,394.5 Z"/></g>
<g><path style="opacity:1" fill="#eee86e" d="M 261.5,395.5 C 261.5,403.833 261.5,412.167 261.5,420.5C 250.833,420.5 240.167,420.5 229.5,420.5C 229.5,412.167 229.5,403.833 229.5,395.5C 240.167,395.5 250.833,395.5 261.5,395.5 Z"/></g>
<g><path style="opacity:1" fill="#eee86e" d="M 275.5,395.5 C 286.167,395.5 296.833,395.5 307.5,395.5C 307.5,403.833 307.5,412.167 307.5,420.5C 296.833,420.5 286.167,420.5 275.5,420.5C 275.5,412.167 275.5,403.833 275.5,395.5 Z"/></g>
<g><path style="opacity:1" fill="#e9e36e" d="M 321.5,394.5 C 332.5,394.5 343.5,394.5 354.5,394.5C 354.5,403.167 354.5,411.833 354.5,420.5C 343.5,420.5 332.5,420.5 321.5,420.5C 321.5,411.833 321.5,403.167 321.5,394.5 Z"/></g>
<g><path style="opacity:1" fill="#eae36e" d="M 367.5,394.5 C 378.5,394.5 389.5,394.5 400.5,394.5C 400.5,403.167 400.5,411.833 400.5,420.5C 389.5,420.5 378.5,420.5 367.5,420.5C 367.5,411.833 367.5,403.167 367.5,394.5 Z"/></g>
</svg>
