<?xml version="1.0" encoding="UTF-8"?>
<!DOCTYPE svg PUBLIC "-//W3C//DTD SVG 1.1//EN" "http://www.w3.org/Graphics/SVG/1.1/DTD/svg11.dtd">
<!-- Creator: CorelDRAW 2021.5 -->
<svg xmlns="http://www.w3.org/2000/svg" xml:space="preserve" width="46.3816mm" height="46.0142mm" version="1.1" style="shape-rendering:geometricPrecision; text-rendering:geometricPrecision; image-rendering:optimizeQuality; fill-rule:evenodd; clip-rule:evenodd"
viewBox="0 0 4638.16 4601.42"
 xmlns:xlink="http://www.w3.org/1999/xlink"
 xmlns:xodm="http://www.corel.com/coreldraw/odm/2003">
 <defs>
  <style type="text/css">
   <![CDATA[
    .str0 {stroke:black;stroke-width:79.38;stroke-linecap:round;stroke-miterlimit:22.9256;stroke-opacity:0.501961}
    .str1 {stroke:#FEFDFB;stroke-width:42.33;stroke-miterlimit:22.9256}
    .fil2 {fill:none;fill-rule:nonzero}
    .fil7 {fill:black;fill-rule:nonzero}
    .fil3 {fill:#76FF03;fill-rule:nonzero}
    .fil1 {fill:#8E8E8E;fill-rule:nonzero}
    .fil5 {fill:#FFCD40;fill-rule:nonzero}
    .fil4 {fill:yellow;fill-rule:nonzero}
    .fil0 {fill:black;fill-rule:nonzero;fill-opacity:0.200000}
    .fil6 {fill:white;fill-rule:nonzero;fill-opacity:0.200000}
   ]]>
  </style>
 </defs>
 <g id="Слой_x0020_1">
  <metadata id="CorelCorpID_0Corel-Layer"/>
  <g id="Логотип">
   <g>
    <path class="fil0" d="M4637.38 3454.41l0 -854.82c0,-90.84 -73.62,-164.45 -164.4,-164.45l-3353.5 0.05c-90.76,-0.05 -164.37,73.56 -164.37,164.35l0 854.87c0,90.73 73.61,164.34 164.4,164.34l3353.49 0.03c90.76,-0.03 164.38,-73.64 164.38,-164.42z"/>
    <path class="fil1" d="M4637.38 3388.65l0 -854.82c0,-90.84 -73.62,-164.45 -164.4,-164.45l-3353.5 0.07c-90.76,-0.07 -164.37,73.54 -164.37,164.33l0 854.87c0,90.73 73.61,164.35 164.4,164.35l3353.49 0.05c90.76,-0.05 164.38,-73.67 164.38,-164.45z"/>
    <line class="fil2 str0" x1="2270.19" y1="2763.98" x2="2007.18" y2= "3158.51" />
    <line class="fil2 str0" x1="1875.66" y1="2763.98" x2="1612.65" y2= "3158.51" />
    <line class="fil2 str0" x1="1481.13" y1="2763.98" x2="1218.12" y2= "3158.51" />
    <line class="fil2 str0" x1="2664.72" y1="2763.98" x2="2401.71" y2= "3158.51" />
    <path class="fil0" d="M3519.54 2796.84c0,-90.79 -73.58,-164.37 -164.37,-164.37 -90.78,0 -164.37,73.58 -164.37,164.37 0,90.78 73.59,164.37 164.37,164.37 90.79,0 164.37,-73.59 164.37,-164.37z"/>
    <path class="fil0" d="M3979.81 2796.84c0,-90.79 -73.59,-164.37 -164.37,-164.37 -90.79,0 -164.38,73.58 -164.38,164.37 0,90.78 73.59,164.37 164.38,164.37 90.78,0 164.37,-73.59 164.37,-164.37z"/>
    <path class="fil0" d="M4440.1 2796.84c0,-90.79 -73.59,-164.37 -164.37,-164.37 -90.79,0 -164.38,73.58 -164.38,164.37 0,90.78 73.59,164.37 164.38,164.37 90.78,0 164.37,-73.59 164.37,-164.37z"/>
    <circle class="fil3" cx="3355.17" cy="2731.1" r="164.37"/>
    <circle class="fil4" cx="3815.44" cy="2731.1" r="164.37"/>
    <circle class="fil5" cx="4275.73" cy="2731.1" r="164.37"/>
   </g>
   <g>
    <path class="fil0" d="M4637.38 2270.81l0 -854.82c0,-90.81 -73.62,-164.42 -164.4,-164.42l-3353.5 0.03c-90.76,-0.03 -164.37,73.58 -164.37,164.37l0 854.84c0,90.74 73.61,164.35 164.4,164.35l3353.49 0.03c90.76,-0.03 164.38,-73.64 164.38,-164.43z"/>
    <path class="fil1" d="M4637.38 2205.06l0 -854.82c0,-90.82 -73.62,-164.43 -164.4,-164.43l-3353.5 0.03c-90.76,-0.03 -164.37,73.58 -164.37,164.37l0 854.85c0,90.73 73.61,164.34 164.4,164.34l3353.49 0.05c90.76,-0.05 164.38,-73.66 164.38,-164.44z"/>
    <line class="fil2 str0" x1="2270.19" y1="1580.37" x2="2007.18" y2= "1974.92" />
    <line class="fil2 str0" x1="1875.66" y1="1580.37" x2="1612.65" y2= "1974.92" />
    <line class="fil2 str0" x1="1481.13" y1="1580.37" x2="1218.12" y2= "1974.92" />
    <line class="fil2 str0" x1="2664.72" y1="1580.37" x2="2401.71" y2= "1974.92" />
    <path class="fil0" d="M3519.54 1613.25c0,-90.79 -73.58,-164.38 -164.37,-164.38 -90.78,0 -164.37,73.59 -164.37,164.38 0,90.78 73.59,164.37 164.37,164.37 90.79,0 164.37,-73.59 164.37,-164.37z"/>
    <path class="fil0" d="M3979.81 1613.25c0,-90.79 -73.59,-164.38 -164.37,-164.38 -90.79,0 -164.38,73.59 -164.38,164.38 0,90.78 73.59,164.37 164.38,164.37 90.78,0 164.37,-73.59 164.37,-164.37z"/>
    <path class="fil0" d="M4440.1 1613.25c0,-90.79 -73.59,-164.38 -164.37,-164.38 -90.79,0 -164.38,73.59 -164.38,164.38 0,90.78 73.59,164.37 164.38,164.37 90.78,0 164.37,-73.59 164.37,-164.37z"/>
    <circle class="fil3" cx="3355.17" cy="1547.51" r="164.37"/>
    <circle class="fil4" cx="3815.44" cy="1547.51" r="164.37"/>
    <circle class="fil5" cx="4275.73" cy="1547.51" r="164.37"/>
   </g>
   <g>
    <path class="fil0" d="M4637.38 1087.22l0 -854.82c0,-90.81 -73.62,-164.42 -164.4,-164.42l-3353.5 0.02c-90.76,-0.02 -164.37,73.59 -164.37,164.38l0 854.84c0,90.76 73.61,164.38 164.4,164.38l3353.49 0c90.76,0 164.38,-73.62 164.38,-164.4z"/>
    <path class="fil1" d="M4637.38 1021.46l0 -854.82c0,-90.81 -73.62,-164.42 -164.4,-164.42l-3353.5 0.03c-90.76,-0.03 -164.37,73.58 -164.37,164.37l0 854.84c0,90.76 73.61,164.38 164.4,164.38l3353.49 0c90.76,0 164.38,-73.62 164.38,-164.4z"/>
    <line class="fil2 str0" x1="2270.19" y1="396.78" x2="2007.18" y2= "791.31" />
    <line class="fil2 str0" x1="1875.66" y1="396.78" x2="1612.65" y2= "791.31" />
    <line class="fil2 str0" x1="1481.13" y1="396.78" x2="1218.12" y2= "791.31" />
    <line class="fil2 str0" x1="2664.72" y1="396.78" x2="2401.71" y2= "791.31" />
    <path class="fil0" d="M3453.79 429.66c0,-90.79 -73.59,-164.38 -164.38,-164.38 -90.78,0 -164.37,73.59 -164.37,164.38 0,90.78 73.59,164.37 164.37,164.37 90.79,0 164.38,-73.59 164.38,-164.37z"/>
    <path class="fil0" d="M3979.81 429.66c0,-90.79 -73.59,-164.38 -164.37,-164.38 -90.79,0 -164.38,73.59 -164.38,164.38 0,90.78 73.59,164.37 164.38,164.37 90.78,0 164.37,-73.59 164.37,-164.37z"/>
    <path class="fil0" d="M4440.1 429.66c0,-90.79 -73.59,-164.38 -164.37,-164.38 -90.79,0 -164.38,73.59 -164.38,164.38 0,90.78 73.59,164.37 164.38,164.37 90.78,0 164.37,-73.59 164.37,-164.37z"/>
    <circle class="fil3" cx="3289.41" cy="363.92" r="164.37"/>
    <circle class="fil4" cx="3815.44" cy="363.92" r="164.37"/>
    <circle class="fil5" cx="4275.73" cy="363.92" r="164.37"/>
    <path class="fil6" d="M1119.48 2.25c-91.06,0 -164.37,73.33 -164.37,164.39l0 65.76c0,-91.08 73.31,-164.4 164.37,-164.4l3353.52 0c91.06,0 164.38,73.32 164.38,164.4l0 -65.76c0,-91.06 -73.32,-164.39 -164.38,-164.39l-3353.52 0z"/>
   </g>
   <g>
    <g>
     <g id="Shape_379_1_">
      <g>
       <path class="fil7 str1" d="M2839.9 3135.65l-1369.49 -1364.21c-18.45,-18.46 -48.34,-18.46 -66.8,0l-1369.53 1364.21c-18.46,18.45 -18.09,47.91 0,66.61 9.25,9.53 21.33,14.39 33.32,14.49l0 0.19 330.65 0 0 1318.41c0,13.03 5.28,24.69 13.82,33.19 8.55,8.59 20.35,13.92 33.38,13.92l660.9 0.01c26.06,0 47.21,-21.15 47.21,-47.12l0 -941.6 566.5 0 0 941.6c0,25.92 21.14,47.12 47.21,47.12l660.9 0c26.06,0 47.21,-21.15 47.21,-47.12l0 -1318.41 332.76 0c12.37,0.24 24.03,-4.63 31.96,-14.63 16.06,-20.54 18.47,-48.21 0,-66.66z"/>
      </g>
     </g>
    </g>
    <g>
    </g>
    <g>
    </g>
    <g>
    </g>
    <g>
    </g>
    <g>
    </g>
    <g>
    </g>
    <g>
    </g>
    <g>
    </g>
    <g>
    </g>
    <g>
    </g>
    <g>
    </g>
    <g>
    </g>
    <g>
    </g>
    <g>
    </g>
    <g>
    </g>
   </g>
  </g>
 </g>
</svg>
